<svg width="293" height="65" viewBox="0 0 293 65" fill="none" xmlns="http://www.w3.org/2000/svg">
<g clip-path="url(#clip0_4_1846)">
<mask id="mask0_4_1846" style="mask-type:luminance" maskUnits="userSpaceOnUse" x="0" y="13" width="72" height="39">
<path d="M71.899 13.0671H0V51.0489H71.899V13.0671Z" fill="white"/>
</mask>
<g mask="url(#mask0_4_1846)">
<path d="M50.483 36.2687L43.8797 13.0671H29.0463V19.2821C27.1232 15.5545 22.4637 13.3207 15.9569 13.3207C8.31274 13.3207 1.50263 16.8907 1.13732 25.2641H10.9113C11.2215 22.6808 13.0964 21.3857 15.6467 21.3857C17.7766 21.3857 19.9065 22.2628 19.9065 24.6405C19.9065 28.0461 16.3084 28.3544 13.4617 28.3544V34.7132C16.0603 34.7132 20.2235 35.0764 20.2235 38.7423C20.2235 40.8597 18.5624 42.977 15.3848 42.977C12.0073 42.977 10.1876 40.9556 10.1876 37.6049H0C0 46.5402 6.29315 51.0352 14.8196 51.0352C21.4574 51.0352 26.4684 49.0275 29.0601 45.1423V50.2609H40.0818V37.6528C40.0818 34.6516 39.6613 29.6358 39.3029 26.3741H39.4063L46.2164 50.254H54.7428L61.5529 26.3878H61.6563C61.1669 30.5403 60.905 34.7201 60.8774 38.9068V50.2815H71.899V13.0671H57.0794L50.4761 36.2687H50.483ZM29.0532 32.9043C28.1503 31.9244 27.0336 31.1707 25.7792 30.7047C27.1577 30.0743 28.3019 29.0328 29.0532 27.7171V32.9043Z" fill="#E82527"/>
</g>
<path d="M89.8408 0V65" stroke="black" stroke-miterlimit="10"/>
<path d="M126.759 34.213C121.052 34.213 112.56 30.2113 112.56 19.193C112.56 12.9575 116.985 4.17293 126.828 4.17293C136.671 4.17293 138.98 12.4915 139.09 12.8478L142.392 11.8542C141.227 8.01016 136.485 0.746826 126.835 0.746826C114.621 0.746826 109.12 11.5322 109.12 19.193C109.12 28.1351 115.303 37.6391 126.766 37.6391C136.698 37.6391 141.337 30.3072 142.406 26.4289L139.083 25.5244C139.063 25.6135 136.588 34.213 126.773 34.213H126.759Z" fill="black"/>
<path d="M150.25 1.29492H147.148V36.9606H150.25V1.29492Z" fill="black"/>
<path d="M196.928 13.115H193.826V36.9538H196.928V13.115Z" fill="black"/>
<path d="M173.43 20.0083C172.851 9.9493 155.743 10.3193 155.26 20.2139H157.701C157.907 17.5347 160.471 15.6024 163.139 15.4037C166.365 14.9377 170.28 16.4589 170.438 20.0083C170.438 20.5154 170.425 21.2828 170.411 22.1462C169.315 22.5231 168.295 22.6053 167.089 22.9342C162.746 23.6126 156.439 23.3042 154.509 28.3612C153.51 31.4515 154.854 35.4875 158.004 36.7825C160.844 37.9063 163.945 37.7624 166.723 36.5838C168.226 35.8849 169.349 34.72 170.266 33.3975L170.225 36.9538H173.637L173.52 27.2717C173.499 25.6751 173.451 21.5501 173.43 20.0083ZM163.587 34.8159C159.706 35.1174 156.57 33.6237 157.452 29.3547C158.142 27.4087 160.244 26.4014 162.353 25.9697C164.58 25.4832 168.405 25.7299 170.383 24.1265C170.37 25.3736 170.356 26.559 170.342 27.2717L170.314 29.6631C168.591 32.2327 166.937 34.7817 163.587 34.8159Z" fill="black"/>
<path d="M181.088 16.6509V13.1151H177.986V36.954H181.088V21.8654C181.24 21.3995 181.371 20.9335 181.543 20.4881C181.743 20.0975 181.991 19.4603 182.26 19.1177C183.776 16.5138 187.064 15.6299 189.87 16.2809L190.552 12.9575C187.009 12.4573 183.184 13.8278 181.088 16.6509Z" fill="black"/>
<path d="M195.377 5.70781C196.725 5.70781 197.817 4.62179 197.817 3.28213C197.817 1.94246 196.725 0.856445 195.377 0.856445C194.029 0.856445 192.937 1.94246 192.937 3.28213C192.937 4.62179 194.029 5.70781 195.377 5.70781Z" fill="black"/>
<path d="M210.217 33.795C209.025 32.9247 208.777 31.0061 208.777 29.5466V15.8627H214.925V13.1219H208.777V5.70093H205.675V11.1621C205.675 12.2448 204.792 13.115 203.71 13.115H200.595V15.8559H205.675V29.5397C205.675 33.4798 207.15 35.3778 208.391 36.2755C209.411 37.0223 210.644 37.3924 212.064 37.3924C213.078 37.3924 213.85 37.3033 215.056 36.9264V34.2883C213.664 34.5213 211.354 34.6172 210.217 33.7881V33.795Z" fill="black"/>
<path d="M237.251 13.0327L229.193 30.4168L220.646 13.0327L217.599 13.1149L227.67 33.699L221.762 46.4304L224.809 46.4098L240.483 13.0327H237.251Z" fill="black"/>
<path d="M109.927 63.7736V53.9407H116.509V54.7355H110.864V58.285H115.965V59.0798H110.864V62.9856H116.647V63.7804H109.927V63.7736Z" fill="black"/>
<path d="M118.681 61.5604C118.812 62.1702 119.039 62.6019 119.377 62.8486C119.708 63.1021 120.19 63.2255 120.811 63.2255C121.114 63.2255 121.376 63.1912 121.596 63.1158C121.817 63.0405 121.996 62.9445 122.141 62.8212C122.286 62.6978 122.389 62.5608 122.465 62.4032C122.541 62.2456 122.575 62.0811 122.575 61.9098C122.575 61.5672 122.465 61.3068 122.237 61.1355C122.01 60.9642 121.734 60.834 121.39 60.7381C121.045 60.6422 120.687 60.56 120.294 60.4914C119.901 60.4229 119.535 60.3201 119.191 60.1831C118.853 60.046 118.57 59.8542 118.343 59.5938C118.116 59.3334 118.005 58.9771 118.005 58.5111C118.005 57.9219 118.226 57.4353 118.66 57.0585C119.094 56.6816 119.715 56.4897 120.507 56.4897C121.3 56.4897 121.9 56.6611 122.382 57.0037C122.865 57.3463 123.154 57.915 123.258 58.7167H122.417C122.341 58.1685 122.134 57.7848 121.789 57.5655C121.445 57.3394 121.01 57.2298 120.494 57.2298C119.977 57.2298 119.57 57.3394 119.301 57.5655C119.025 57.7917 118.887 58.0795 118.887 58.4495C118.887 58.7647 118.998 59.0114 119.225 59.1827C119.453 59.354 119.728 59.491 120.073 59.5938C120.411 59.6966 120.776 59.7925 121.176 59.8747C121.569 59.957 121.934 60.0734 122.272 60.2242C122.61 60.3749 122.892 60.5805 123.12 60.834C123.347 61.0876 123.457 61.4439 123.457 61.8961C123.457 62.2319 123.382 62.5334 123.237 62.7938C123.092 63.0542 122.885 63.2734 122.63 63.4447C122.375 63.616 122.072 63.7462 121.714 63.8353C121.355 63.9244 120.976 63.9655 120.556 63.9655C120.135 63.9655 119.763 63.9038 119.439 63.7805C119.115 63.6572 118.839 63.4858 118.605 63.2666C118.377 63.0473 118.198 62.7938 118.067 62.4991C117.936 62.2113 117.867 61.8961 117.847 61.5535H118.688L118.681 61.5604Z" fill="black"/>
<path d="M127.573 63.8008C127.469 63.8214 127.338 63.8488 127.173 63.8968C127.007 63.9447 126.828 63.9653 126.621 63.9653C126.208 63.9653 125.898 63.8625 125.677 63.6569C125.463 63.4514 125.353 63.0882 125.353 62.5606V57.3803H124.347V56.6951H125.353V54.7285H126.18V56.6951H127.51V57.3803H126.18V62.2317C126.18 62.403 126.18 62.5537 126.194 62.6839C126.201 62.8141 126.228 62.9169 126.277 62.9991C126.325 63.0814 126.394 63.143 126.49 63.1773C126.587 63.2115 126.725 63.2321 126.897 63.2321C127.007 63.2321 127.118 63.2252 127.235 63.2047C127.352 63.1841 127.462 63.1636 127.573 63.1362V63.8077V63.8008Z" fill="black"/>
<path d="M128.889 63.7736V53.9407H129.716V57.682C130.047 57.3394 130.384 57.0516 130.743 56.8323C131.094 56.613 131.522 56.5034 132.011 56.5034C132.452 56.5034 132.859 56.5788 133.231 56.7295C133.603 56.8803 133.92 57.1407 134.182 57.5175C134.355 57.7711 134.458 58.0314 134.493 58.3055C134.527 58.5728 134.541 58.8537 134.541 59.1483V63.7804H133.714V59.162C133.714 58.5248 133.569 58.0451 133.286 57.7299C133.004 57.4147 132.528 57.2503 131.873 57.2503C131.618 57.2503 131.384 57.2914 131.17 57.3668C130.957 57.4421 130.77 57.5449 130.598 57.6751C130.426 57.8053 130.281 57.9492 130.164 58.1137C130.047 58.2781 129.95 58.4494 129.888 58.6344C129.805 58.8606 129.757 59.0798 129.737 59.2922C129.716 59.5047 129.709 59.7308 129.709 59.9775V63.7873H128.882L128.889 63.7736Z" fill="black"/>
<path d="M137.036 60.4228C137.036 60.8066 137.084 61.1697 137.188 61.5055C137.291 61.8481 137.436 62.1427 137.636 62.3963C137.836 62.6498 138.084 62.8485 138.387 62.9993C138.69 63.15 139.035 63.2254 139.435 63.2254C139.972 63.2254 140.441 63.0815 140.82 62.8006C141.199 62.5196 141.461 62.1153 141.592 61.6014H142.516C142.412 61.9372 142.281 62.2524 142.116 62.5402C141.951 62.828 141.744 63.0815 141.496 63.2939C141.248 63.5063 140.958 63.6776 140.613 63.7941C140.276 63.9106 139.883 63.9723 139.435 63.9723C138.87 63.9723 138.373 63.8764 137.967 63.6845C137.56 63.4926 137.215 63.2322 136.946 62.8965C136.678 62.5676 136.485 62.1702 136.354 61.7248C136.223 61.2725 136.161 60.786 136.161 60.2721C136.161 59.7582 136.236 59.2648 136.388 58.8126C136.54 58.3603 136.753 57.956 137.036 57.6203C137.319 57.2777 137.656 57.0104 138.063 56.8117C138.463 56.613 138.925 56.5171 139.435 56.5171C140.414 56.5171 141.186 56.8528 141.744 57.5175C142.302 58.189 142.578 59.162 142.571 60.4365H137.05L137.036 60.4228ZM141.682 59.7376C141.682 59.395 141.634 59.0661 141.537 58.7578C141.441 58.4494 141.296 58.189 141.11 57.9629C140.924 57.7368 140.689 57.5655 140.4 57.4284C140.11 57.2914 139.793 57.2297 139.421 57.2297C139.049 57.2297 138.732 57.2982 138.449 57.4353C138.166 57.5723 137.932 57.7573 137.732 57.9835C137.532 58.2096 137.374 58.4768 137.257 58.7783C137.139 59.0798 137.057 59.395 137.022 59.7376H141.668H141.682Z" fill="black"/>
<path d="M146.673 63.8008C146.569 63.8214 146.438 63.8488 146.273 63.8968C146.107 63.9447 145.928 63.9653 145.721 63.9653C145.308 63.9653 144.998 63.8625 144.777 63.6569C144.563 63.4514 144.453 63.0882 144.453 62.5606V57.3803H143.447V56.6951H144.453V54.7285H145.28V56.6951H146.611V57.3803H145.28V62.2317C145.28 62.403 145.28 62.5537 145.294 62.6839C145.301 62.8141 145.329 62.9169 145.377 62.9991C145.425 63.0814 145.494 63.143 145.59 63.1773C145.687 63.2115 145.825 63.2321 145.997 63.2321C146.107 63.2321 146.218 63.2252 146.335 63.2047C146.452 63.1841 146.562 63.1636 146.673 63.1362V63.8077V63.8008Z" fill="black"/>
<path d="M148.072 55.1535V53.9407H148.982V55.1535H148.072ZM148.113 63.7736V56.6953H148.94V63.7736H148.113Z" fill="black"/>
<path d="M156.081 58.9222C155.936 58.3946 155.681 57.9835 155.323 57.6888C154.965 57.3942 154.51 57.2434 153.965 57.2434C153.545 57.2434 153.179 57.3325 152.876 57.5038C152.573 57.6751 152.325 57.9081 152.132 58.1959C151.939 58.4837 151.794 58.8057 151.704 59.1689C151.615 59.5321 151.566 59.8884 151.566 60.2515C151.566 60.6147 151.608 60.9916 151.697 61.341C151.787 61.6974 151.925 62.0126 152.118 62.3003C152.311 62.5813 152.559 62.8074 152.862 62.9787C153.165 63.15 153.531 63.2322 153.958 63.2322C154.572 63.2322 155.061 63.0609 155.433 62.7252C155.805 62.3894 156.04 61.9235 156.143 61.3342H157.025C156.95 61.7248 156.832 62.0811 156.674 62.4031C156.515 62.7252 156.309 63.0061 156.054 63.2391C155.799 63.4721 155.502 63.6502 155.151 63.7804C154.799 63.9106 154.406 63.9723 153.958 63.9723C153.393 63.9723 152.897 63.8764 152.49 63.6845C152.076 63.4926 151.739 63.2322 151.47 62.8965C151.201 62.5676 151.008 62.1702 150.877 61.7179C150.746 61.2657 150.684 60.7723 150.684 60.2584C150.684 59.765 150.753 59.2922 150.898 58.8468C151.043 58.3946 151.249 57.9972 151.525 57.6546C151.801 57.3119 152.138 57.031 152.552 56.8254C152.959 56.6199 153.427 56.5171 153.958 56.5171C154.785 56.5171 155.447 56.7158 155.957 57.1064C156.467 57.497 156.784 58.1068 156.915 58.9359H156.074L156.081 58.9222Z" fill="black"/>
<path d="M162.236 58.8673C162.236 58.1478 162.333 57.4763 162.533 56.8459C162.733 56.2155 163.022 55.6673 163.408 55.2014C163.794 54.7354 164.27 54.3585 164.835 54.0913C165.4 53.8241 166.055 53.6802 166.799 53.6802C167.544 53.6802 168.247 53.8172 168.826 54.0845C169.405 54.3517 169.894 54.7217 170.28 55.1945C170.666 55.6605 170.963 56.2155 171.163 56.8459C171.362 57.4763 171.459 58.1547 171.459 58.8741C171.459 59.5936 171.362 60.2514 171.163 60.875C170.963 61.4985 170.673 62.0467 170.287 62.5127C169.901 62.9786 169.419 63.3555 168.847 63.6227C168.268 63.8968 167.599 64.0339 166.841 64.0339C166.083 64.0339 165.414 63.8968 164.835 63.6227C164.256 63.3486 163.773 62.9786 163.394 62.5127C163.008 62.0467 162.719 61.4985 162.526 60.875C162.333 60.2514 162.236 59.5868 162.236 58.8741V58.8673ZM166.855 63.239C167.496 63.239 168.047 63.1157 168.509 62.8758C168.971 62.636 169.35 62.314 169.653 61.9097C169.949 61.5122 170.17 61.0463 170.315 60.5187C170.459 59.9911 170.528 59.4429 170.528 58.8673C170.528 58.1821 170.446 57.5722 170.273 57.0309C170.101 56.4896 169.86 56.0305 169.536 55.6468C169.212 55.263 168.826 54.9752 168.371 54.7697C167.909 54.571 167.399 54.4682 166.834 54.4682C166.2 54.4682 165.655 54.5915 165.193 54.8382C164.732 55.0849 164.352 55.4069 164.049 55.8181C163.753 56.2223 163.532 56.6883 163.387 57.2159C163.243 57.7435 163.174 58.2986 163.174 58.8673C163.174 59.436 163.243 60.0048 163.387 60.5324C163.532 61.06 163.746 61.526 164.049 61.9234C164.346 62.3208 164.725 62.6429 165.193 62.8827C165.655 63.1225 166.213 63.239 166.861 63.239H166.855Z" fill="black"/>
<path d="M174.058 63.7736H173.23V56.6953H174.058V58.0178H174.085C174.313 57.4559 174.609 57.0584 174.974 56.8392C175.333 56.6131 175.815 56.5034 176.408 56.5034V57.3874C175.939 57.3805 175.553 57.449 175.257 57.6066C174.954 57.7642 174.712 57.9698 174.533 58.237C174.354 58.5043 174.23 58.8126 174.161 59.1758C174.092 59.5321 174.058 59.909 174.058 60.2995V63.7668V63.7736Z" fill="black"/>
<path d="M180.268 63.8008C180.164 63.8214 180.033 63.8488 179.868 63.8968C179.703 63.9447 179.523 63.9653 179.317 63.9653C178.903 63.9653 178.593 63.8625 178.372 63.6569C178.159 63.4514 178.048 63.0882 178.048 62.5606V57.3803H177.042V56.6951H178.048V54.7285H178.875V56.6951H180.206V57.3803H178.875V62.2317C178.875 62.403 178.875 62.5537 178.889 62.6839C178.896 62.8141 178.924 62.9169 178.972 62.9991C179.02 63.0814 179.089 63.143 179.186 63.1773C179.282 63.2115 179.413 63.2321 179.592 63.2321C179.703 63.2321 179.813 63.2252 179.93 63.2047C180.047 63.1841 180.158 63.1636 180.268 63.1362V63.8077V63.8008Z" fill="black"/>
<path d="M181.585 63.7736V53.9407H182.412V57.682C182.743 57.3394 183.08 57.0516 183.439 56.8323C183.79 56.613 184.218 56.5034 184.707 56.5034C185.148 56.5034 185.555 56.5788 185.927 56.7295C186.299 56.8803 186.616 57.1407 186.878 57.5175C187.051 57.7711 187.154 58.0314 187.188 58.3055C187.223 58.5728 187.237 58.8537 187.237 59.1483V63.7804H186.41V59.162C186.41 58.5248 186.265 58.0451 185.982 57.7299C185.7 57.4147 185.224 57.2503 184.569 57.2503C184.314 57.2503 184.08 57.2914 183.866 57.3668C183.652 57.4421 183.466 57.5449 183.294 57.6751C183.122 57.8053 182.977 57.9492 182.86 58.1137C182.743 58.2781 182.646 58.4494 182.584 58.6344C182.501 58.8606 182.453 59.0798 182.432 59.2922C182.412 59.5047 182.405 59.7308 182.405 59.9775V63.7873H181.578L181.585 63.7736Z" fill="black"/>
<path d="M192.055 63.9654C191.6 63.9586 191.165 63.8764 190.772 63.7188C190.373 63.5612 190.028 63.335 189.732 63.0198C189.435 62.7115 189.201 62.3209 189.022 61.8618C188.849 61.3959 188.76 60.8546 188.76 60.2379C188.76 59.7171 188.829 59.2306 188.967 58.7852C189.104 58.3329 189.311 57.9424 189.587 57.6066C189.863 57.2708 190.207 57.0036 190.621 56.8049C191.034 56.6062 191.517 56.5103 192.061 56.5103C192.606 56.5103 193.109 56.6062 193.516 56.8049C193.929 57.0036 194.274 57.264 194.55 57.5998C194.825 57.9355 195.025 58.3261 195.163 58.7783C195.294 59.2374 195.363 59.7239 195.363 60.2379C195.363 60.7997 195.287 61.3136 195.129 61.7659C194.97 62.225 194.75 62.6156 194.46 62.9376C194.171 63.2665 193.826 63.5201 193.412 63.6982C193.006 63.8764 192.551 63.9654 192.061 63.9654H192.055ZM194.474 60.2379C194.474 59.8199 194.426 59.4293 194.336 59.0661C194.246 58.703 194.102 58.3878 193.909 58.1137C193.716 57.8464 193.468 57.634 193.164 57.4764C192.861 57.3188 192.489 57.2434 192.048 57.2434C191.606 57.2434 191.248 57.3257 190.945 57.497C190.641 57.6683 190.386 57.8875 190.193 58.1685C190 58.4494 189.856 58.7646 189.766 59.1278C189.677 59.491 189.628 59.861 189.628 60.2379C189.628 60.6764 189.683 61.0807 189.787 61.4438C189.89 61.8139 190.049 62.1291 190.249 62.3963C190.449 62.6635 190.704 62.8622 191.007 63.013C191.31 63.1637 191.655 63.2323 192.048 63.2323C192.475 63.2323 192.847 63.15 193.157 62.9787C193.461 62.8074 193.716 62.5813 193.909 62.3004C194.102 62.0194 194.246 61.6974 194.336 61.3411C194.426 60.9847 194.474 60.6147 194.474 60.2379Z" fill="black"/>
<path d="M202.367 53.9338H203.194V63.7667H202.367V62.5265H202.339C202.222 62.7663 202.063 62.9719 201.877 63.1501C201.691 63.3282 201.484 63.479 201.257 63.5954C201.029 63.7119 200.802 63.8079 200.561 63.8695C200.319 63.9312 200.092 63.9655 199.858 63.9655C199.279 63.9655 198.789 63.8695 198.389 63.6777C197.99 63.4858 197.652 63.2254 197.39 62.8897C197.128 62.5608 196.935 62.1633 196.818 61.7111C196.701 61.2588 196.639 60.7655 196.639 60.2516C196.639 59.7582 196.701 59.2854 196.832 58.8332C196.963 58.3809 197.156 57.9766 197.418 57.6409C197.679 57.2983 198.01 57.0242 198.403 56.8186C198.796 56.613 199.272 56.5103 199.809 56.5103C200.313 56.5103 200.795 56.6199 201.257 56.846C201.719 57.0721 202.084 57.4011 202.346 57.8396V53.9475L202.367 53.9338ZM202.367 60.2036C202.367 59.8062 202.311 59.4225 202.201 59.0593C202.091 58.703 201.932 58.3878 201.726 58.1137C201.519 57.8464 201.271 57.6272 200.967 57.4696C200.671 57.312 200.333 57.2297 199.954 57.2297C199.527 57.2297 199.155 57.312 198.844 57.4833C198.534 57.6546 198.279 57.8807 198.072 58.1754C197.872 58.4631 197.728 58.8058 197.631 59.1895C197.542 59.5801 197.5 59.9912 197.521 60.4366C197.521 60.882 197.583 61.2794 197.707 61.6152C197.831 61.9578 198.003 62.2456 198.224 62.4854C198.445 62.7252 198.7 62.9034 198.996 63.0267C199.286 63.1501 199.609 63.2117 199.961 63.2117C200.347 63.2117 200.692 63.1363 200.995 62.9787C201.298 62.8211 201.546 62.6156 201.753 62.3415C201.953 62.0743 202.105 61.7522 202.215 61.3822C202.318 61.0122 202.374 60.6147 202.374 60.1899L202.367 60.2036Z" fill="black"/>
<path d="M208.094 63.9654C207.639 63.9586 207.205 63.8764 206.812 63.7188C206.412 63.5612 206.068 63.335 205.771 63.0198C205.475 62.7115 205.24 62.3209 205.061 61.8618C204.889 61.3959 204.799 60.8546 204.799 60.2379C204.799 59.7171 204.868 59.2306 205.006 58.7852C205.144 58.3329 205.351 57.9424 205.626 57.6066C205.902 57.2708 206.247 57.0036 206.66 56.8049C207.074 56.6062 207.556 56.5103 208.101 56.5103C208.646 56.5103 209.149 56.6062 209.555 56.8049C209.969 57.0036 210.314 57.264 210.589 57.5998C210.865 57.9355 211.065 58.3261 211.203 58.7783C211.334 59.2374 211.403 59.7239 211.403 60.2379C211.403 60.7997 211.327 61.3136 211.168 61.7659C211.01 62.225 210.789 62.6156 210.5 62.9376C210.21 63.2665 209.866 63.5201 209.452 63.6982C209.045 63.8764 208.59 63.9654 208.101 63.9654H208.094ZM210.513 60.2379C210.513 59.8199 210.465 59.4293 210.376 59.0661C210.286 58.703 210.141 58.3878 209.948 58.1137C209.755 57.8464 209.507 57.634 209.204 57.4764C208.901 57.3188 208.528 57.2434 208.087 57.2434C207.646 57.2434 207.288 57.3257 206.984 57.497C206.681 57.6683 206.426 57.8875 206.233 58.1685C206.04 58.4494 205.895 58.7646 205.806 59.1278C205.716 59.491 205.668 59.861 205.668 60.2379C205.668 60.6764 205.723 61.0807 205.826 61.4438C205.93 61.8139 206.088 62.1291 206.288 62.3963C206.488 62.6635 206.743 62.8622 207.046 63.013C207.35 63.1637 207.694 63.2323 208.087 63.2323C208.515 63.2323 208.887 63.15 209.197 62.9787C209.5 62.8074 209.755 62.5813 209.948 62.3004C210.141 62.0194 210.286 61.6974 210.376 61.3411C210.465 60.9847 210.513 60.6147 210.513 60.2379Z" fill="black"/>
<path d="M213.726 63.7736H212.898V56.6953H213.726V57.682C214.056 57.3394 214.394 57.0516 214.753 56.8323C215.104 56.6131 215.531 56.5034 216.021 56.5034C216.462 56.5034 216.869 56.5788 217.241 56.7295C217.613 56.8803 217.93 57.1407 218.192 57.5175C218.364 57.7711 218.468 58.0315 218.502 58.3055C218.537 58.5728 218.551 58.8537 218.551 59.1484V63.7805H217.723V59.1621C217.723 58.5248 217.579 58.0452 217.296 57.73C217.013 57.4148 216.538 57.2503 215.883 57.2503C215.628 57.2503 215.394 57.2914 215.18 57.3668C214.966 57.4422 214.78 57.545 214.608 57.6751C214.436 57.8053 214.291 57.9492 214.174 58.1137C214.056 58.2781 213.96 58.4494 213.898 58.6345C213.815 58.8606 213.767 59.0798 213.746 59.2923C213.726 59.5047 213.719 59.7308 213.719 59.9775V63.7873L213.726 63.7736Z" fill="black"/>
<path d="M223.045 63.8008C222.941 63.8214 222.81 63.8488 222.645 63.8968C222.479 63.9447 222.3 63.9653 222.093 63.9653C221.68 63.9653 221.37 63.8625 221.149 63.6569C220.935 63.4514 220.825 63.0882 220.825 62.5606V57.3803H219.819V56.6951H220.825V54.7285H221.652V56.6951H222.983V57.3803H221.652V62.2317C221.652 62.403 221.652 62.5537 221.666 62.6839C221.673 62.8141 221.701 62.9169 221.749 62.9991C221.797 63.0814 221.866 63.143 221.963 63.1773C222.059 63.2115 222.19 63.2321 222.369 63.2321C222.479 63.2321 222.59 63.2252 222.707 63.2047C222.824 63.1841 222.934 63.1636 223.045 63.1362V63.8077V63.8008Z" fill="black"/>
<path d="M224.444 55.1535V53.9407H225.354V55.1535H224.444ZM224.485 63.7736V56.6953H225.312V63.7736H224.485Z" fill="black"/>
<path d="M232.461 58.9222C232.316 58.3946 232.061 57.9835 231.702 57.6888C231.344 57.3942 230.889 57.2434 230.344 57.2434C229.924 57.2434 229.559 57.3325 229.255 57.5038C228.952 57.6751 228.704 57.9081 228.511 58.1959C228.318 58.4837 228.173 58.8057 228.084 59.1689C227.994 59.5321 227.946 59.8884 227.946 60.2515C227.946 60.6147 227.987 60.9916 228.077 61.341C228.166 61.6974 228.304 62.0126 228.497 62.3003C228.69 62.5813 228.938 62.8074 229.242 62.9787C229.545 63.15 229.91 63.2322 230.338 63.2322C230.951 63.2322 231.44 63.0609 231.813 62.7252C232.185 62.3894 232.419 61.9235 232.523 61.3342H233.405C233.329 61.7248 233.212 62.0811 233.053 62.4031C232.895 62.7252 232.688 63.0061 232.433 63.2391C232.178 63.4721 231.882 63.6502 231.53 63.7804C231.178 63.9106 230.786 63.9723 230.338 63.9723C229.772 63.9723 229.276 63.8764 228.869 63.6845C228.456 63.4926 228.118 63.2322 227.849 62.8965C227.58 62.5676 227.387 62.1702 227.256 61.7179C227.126 61.2657 227.063 60.7723 227.063 60.2584C227.063 59.765 227.132 59.2922 227.277 58.8468C227.422 58.3946 227.629 57.9972 227.904 57.6546C228.18 57.3119 228.518 57.031 228.931 56.8254C229.338 56.6199 229.807 56.5171 230.338 56.5171C231.165 56.5171 231.826 56.7158 232.336 57.1064C232.847 57.497 233.164 58.1068 233.295 58.9359H232.454L232.461 58.9222Z" fill="black"/>
<path d="M239.381 60.8339C239.415 61.2725 239.518 61.6425 239.677 61.944C239.836 62.2455 240.042 62.499 240.297 62.6909C240.552 62.8827 240.842 63.0198 241.173 63.1089C241.504 63.1979 241.855 63.2391 242.234 63.2391C242.675 63.2391 243.054 63.1842 243.372 63.0746C243.696 62.965 243.951 62.8142 244.157 62.6292C244.357 62.4442 244.509 62.2249 244.605 61.9783C244.702 61.7316 244.75 61.4712 244.75 61.1971C244.75 60.8134 244.661 60.505 244.488 60.2652C244.316 60.0254 244.088 59.8335 243.806 59.6828C243.523 59.532 243.206 59.4155 242.841 59.3196C242.482 59.2305 242.11 59.1414 241.731 59.0524C241.352 58.9633 240.98 58.8605 240.614 58.744C240.249 58.6275 239.932 58.4631 239.649 58.2644C239.367 58.0656 239.146 57.8053 238.967 57.4901C238.795 57.1749 238.705 56.7774 238.705 56.2978C238.705 55.962 238.774 55.6331 238.919 55.3111C239.064 54.989 239.27 54.7081 239.553 54.4614C239.836 54.2147 240.18 54.0229 240.608 53.8721C241.028 53.7282 241.517 53.6528 242.062 53.6528C242.606 53.6528 243.11 53.7282 243.523 53.8858C243.937 54.0434 244.288 54.2558 244.557 54.5231C244.833 54.7903 245.04 55.1055 245.177 55.4618C245.315 55.8181 245.384 56.195 245.384 56.5993H244.488C244.488 56.2293 244.419 55.9004 244.288 55.6263C244.157 55.3522 243.971 55.1329 243.744 54.9547C243.516 54.7834 243.254 54.6533 242.958 54.571C242.669 54.4888 242.365 54.4477 242.048 54.4477C241.573 54.4477 241.173 54.5162 240.849 54.6464C240.525 54.7766 240.263 54.9479 240.07 55.1603C239.877 55.3727 239.746 55.6057 239.67 55.8592C239.594 56.1128 239.581 56.3732 239.629 56.6267C239.684 56.9419 239.815 57.2023 240.015 57.3941C240.215 57.586 240.463 57.7436 240.759 57.8669C241.049 57.9903 241.373 58.0931 241.731 58.1684C242.083 58.2438 242.441 58.326 242.813 58.4151C243.179 58.5042 243.537 58.607 243.875 58.7235C244.212 58.8399 244.523 59.0044 244.791 59.2031C245.06 59.4018 245.267 59.6622 245.433 59.9774C245.591 60.2926 245.674 60.6832 245.674 61.156C245.674 62.0673 245.357 62.7731 244.723 63.2733C244.088 63.7735 243.199 64.0271 242.055 64.0271C241.545 64.0271 241.062 63.9585 240.628 63.8284C240.194 63.6982 239.808 63.4926 239.484 63.2254C239.167 62.9581 238.912 62.6224 238.733 62.2249C238.553 61.8275 238.464 61.3616 238.464 60.8271H239.374L239.381 60.8339Z" fill="black"/>
<path d="M250.099 63.9654C249.644 63.9586 249.21 63.8764 248.817 63.7188C248.417 63.5612 248.072 63.335 247.776 63.0198C247.48 62.7115 247.245 62.3209 247.066 61.8618C246.894 61.3959 246.804 60.8546 246.804 60.2379C246.804 59.7171 246.873 59.2306 247.011 58.7852C247.149 58.3329 247.356 57.9424 247.631 57.6066C247.907 57.2708 248.252 57.0036 248.665 56.8049C249.079 56.6062 249.561 56.5103 250.106 56.5103C250.65 56.5103 251.154 56.6062 251.56 56.8049C251.974 57.0036 252.318 57.264 252.594 57.5998C252.87 57.9355 253.07 58.3261 253.208 58.7783C253.339 59.2374 253.408 59.7239 253.408 60.2379C253.408 60.7997 253.332 61.3136 253.173 61.7659C253.015 62.225 252.794 62.6156 252.505 62.9376C252.215 63.2665 251.87 63.5201 251.457 63.6982C251.05 63.8764 250.595 63.9654 250.106 63.9654H250.099ZM252.518 60.2379C252.518 59.8199 252.47 59.4293 252.38 59.0661C252.291 58.703 252.146 58.3878 251.953 58.1137C251.76 57.8464 251.512 57.634 251.209 57.4764C250.905 57.3188 250.533 57.2434 250.092 57.2434C249.651 57.2434 249.293 57.3257 248.989 57.497C248.686 57.6683 248.431 57.8875 248.238 58.1685C248.045 58.4494 247.9 58.7646 247.811 59.1278C247.721 59.491 247.673 59.861 247.673 60.2379C247.673 60.6764 247.728 61.0807 247.831 61.4438C247.935 61.8139 248.093 62.1291 248.293 62.3963C248.493 62.6635 248.748 62.8622 249.051 63.013C249.355 63.1637 249.699 63.2323 250.092 63.2323C250.519 63.2323 250.892 63.15 251.202 62.9787C251.505 62.8074 251.76 62.5813 251.953 62.3004C252.146 62.0194 252.291 61.6974 252.38 61.3411C252.47 60.9847 252.518 60.6147 252.518 60.2379Z" fill="black"/>
<path d="M255.034 63.7736V53.9407H255.861V63.7736H255.034Z" fill="black"/>
<path d="M262.782 56.6953H263.609V63.7737H262.782V62.7869C262.672 62.9171 262.548 63.0473 262.41 63.1844C262.272 63.3214 262.113 63.4447 261.934 63.5612C261.755 63.6777 261.548 63.7737 261.307 63.849C261.066 63.9244 260.797 63.9655 260.48 63.9655C260.004 63.9655 259.604 63.897 259.287 63.7668C258.963 63.6366 258.708 63.4516 258.509 63.2118C258.309 62.9719 258.171 62.6979 258.081 62.3827C257.992 62.0675 257.95 61.7248 257.95 61.3548V56.6953H258.777V61.3411C258.777 61.951 258.922 62.4169 259.205 62.739C259.487 63.061 259.956 63.2255 260.604 63.2255C260.942 63.2255 261.245 63.157 261.521 63.0268C261.789 62.8966 262.017 62.7116 262.203 62.4717C262.389 62.2319 262.527 61.951 262.63 61.6221C262.734 61.2932 262.782 60.9368 262.782 60.5394V56.6885V56.6953Z" fill="black"/>
<path d="M268.103 63.8008C268 63.8214 267.869 63.8488 267.704 63.8968C267.538 63.9447 267.359 63.9653 267.152 63.9653C266.738 63.9653 266.428 63.8625 266.208 63.6569C265.994 63.4514 265.884 63.0882 265.884 62.5606V57.3803H264.877V56.6951H265.884V54.7285H266.711V56.6951H268.041V57.3803H266.711V62.2317C266.711 62.403 266.711 62.5537 266.725 62.6839C266.732 62.8141 266.759 62.9169 266.807 62.9991C266.856 63.0814 266.925 63.143 267.021 63.1773C267.118 63.2115 267.249 63.2321 267.428 63.2321C267.538 63.2321 267.648 63.2252 267.766 63.2047C267.883 63.1841 267.993 63.1636 268.103 63.1362V63.8077V63.8008Z" fill="black"/>
<path d="M269.502 55.1535V53.9407H270.412V55.1535H269.502ZM269.544 63.7736V56.6953H270.371V63.7736H269.544Z" fill="black"/>
<path d="M275.299 63.9654C274.844 63.9586 274.41 63.8764 274.017 63.7188C273.617 63.5612 273.273 63.335 272.976 63.0198C272.68 62.7115 272.446 62.3209 272.266 61.8618C272.094 61.3959 272.004 60.8546 272.004 60.2379C272.004 59.7171 272.073 59.2306 272.211 58.7852C272.349 58.3329 272.556 57.9424 272.832 57.6066C273.107 57.2708 273.452 57.0036 273.865 56.8049C274.279 56.6062 274.762 56.5103 275.306 56.5103C275.851 56.5103 276.354 56.6062 276.76 56.8049C277.174 57.0036 277.519 57.264 277.794 57.5998C278.07 57.9355 278.27 58.3261 278.408 58.7783C278.539 59.2374 278.608 59.7239 278.608 60.2379C278.608 60.7997 278.532 61.3136 278.373 61.7659C278.215 62.225 277.994 62.6156 277.705 62.9376C277.415 63.2665 277.071 63.5201 276.657 63.6982C276.25 63.8764 275.795 63.9654 275.306 63.9654H275.299ZM277.719 60.2379C277.719 59.8199 277.67 59.4293 277.581 59.0661C277.491 58.703 277.346 58.3878 277.153 58.1137C276.96 57.8464 276.712 57.634 276.409 57.4764C276.106 57.3188 275.733 57.2434 275.292 57.2434C274.851 57.2434 274.493 57.3257 274.189 57.497C273.886 57.6683 273.631 57.8875 273.438 58.1685C273.245 58.4494 273.1 58.7646 273.011 59.1278C272.921 59.491 272.873 59.861 272.873 60.2379C272.873 60.6764 272.928 61.0807 273.031 61.4438C273.135 61.8139 273.293 62.1291 273.493 62.3963C273.693 62.6635 273.948 62.8622 274.251 63.013C274.555 63.1637 274.899 63.2323 275.292 63.2323C275.72 63.2323 276.092 63.15 276.402 62.9787C276.705 62.8074 276.96 62.5813 277.153 62.3004C277.346 62.0194 277.491 61.6974 277.581 61.3411C277.67 60.9847 277.719 60.6147 277.719 60.2379Z" fill="black"/>
<path d="M280.937 63.7736H280.11V56.6953H280.937V57.682C281.268 57.3394 281.606 57.0516 281.965 56.8323C282.316 56.6131 282.743 56.5034 283.233 56.5034C283.674 56.5034 284.081 56.5788 284.453 56.7295C284.825 56.8803 285.142 57.1407 285.404 57.5175C285.576 57.7711 285.68 58.0315 285.714 58.3055C285.749 58.5728 285.762 58.8537 285.762 59.1484V63.7805H284.935V59.1621C284.935 58.5248 284.791 58.0452 284.508 57.73C284.225 57.4148 283.75 57.2503 283.095 57.2503C282.84 57.2503 282.606 57.2914 282.392 57.3668C282.178 57.4422 281.992 57.545 281.82 57.6751C281.647 57.8053 281.503 57.9492 281.386 58.1137C281.268 58.2781 281.172 58.4494 281.11 58.6345C281.027 58.8606 280.979 59.0798 280.958 59.2923C280.937 59.5047 280.931 59.7308 280.931 59.9775V63.7873L280.937 63.7736Z" fill="black"/>
<path d="M288.23 61.5604C288.361 62.1702 288.589 62.6019 288.927 62.8486C289.264 63.1021 289.74 63.2255 290.36 63.2255C290.664 63.2255 290.926 63.1912 291.146 63.1158C291.367 63.0405 291.546 62.9445 291.691 62.8212C291.835 62.6978 291.939 62.5608 292.015 62.4032C292.09 62.2456 292.125 62.0811 292.125 61.9098C292.125 61.5672 292.015 61.3068 291.787 61.1355C291.56 60.9642 291.284 60.834 290.939 60.7381C290.602 60.6422 290.236 60.56 289.843 60.4914C289.45 60.4229 289.085 60.3201 288.747 60.1831C288.41 60.046 288.127 59.8542 287.9 59.5938C287.672 59.3403 287.562 58.9771 287.562 58.5111C287.562 57.9219 287.782 57.4353 288.217 57.0585C288.651 56.6816 289.264 56.4897 290.064 56.4897C290.864 56.4897 291.456 56.6611 291.939 57.0037C292.421 57.3463 292.711 57.915 292.814 58.7167H291.973C291.897 58.1685 291.691 57.7848 291.346 57.5655C291.001 57.3394 290.567 57.2298 290.05 57.2298C289.533 57.2298 289.127 57.3394 288.858 57.5655C288.582 57.7917 288.444 58.0795 288.444 58.4495C288.444 58.7647 288.554 59.0114 288.782 59.1827C289.009 59.354 289.285 59.491 289.63 59.5938C289.967 59.6966 290.333 59.7925 290.726 59.8747C291.119 59.957 291.484 60.0734 291.829 60.2242C292.166 60.3749 292.449 60.5805 292.676 60.834C292.904 61.0876 293.014 61.4439 293.014 61.8961C293.014 62.2319 292.938 62.5334 292.794 62.7938C292.649 63.0542 292.442 63.2734 292.187 63.4447C291.932 63.616 291.629 63.7462 291.27 63.8353C290.919 63.9244 290.533 63.9655 290.112 63.9655C289.692 63.9655 289.32 63.9038 288.996 63.7805C288.672 63.6572 288.396 63.4858 288.162 63.2666C287.934 63.0473 287.755 62.7938 287.624 62.4991C287.493 62.2113 287.424 61.8961 287.403 61.5535H288.244L288.23 61.5604Z" fill="black"/>
<path d="M245.701 1.79517H248.562V2.11037H247.321V5.70092H246.949V2.11037H245.708V1.79517H245.701Z" fill="black"/>
<path d="M249.072 5.70092V1.79517H249.637L250.926 5.24182H250.94L252.208 1.79517H252.773V5.70092H252.401V2.22H252.387L251.098 5.70092H250.747L249.451 2.22H249.437V5.70092H249.065H249.072Z" fill="black"/>
</g>
<defs>
<clipPath id="clip0_4_1846">
<rect width="293" height="65" fill="white"/>
</clipPath>
</defs>
</svg>
