<svg width="295" height="63" viewBox="0 0 295 63" fill="none" xmlns="http://www.w3.org/2000/svg">
<path d="M5.5733 42.9253H7.62667L12.4667 53.731L17.3557 42.9253H19.2624V55.1684H17.9424V44.1645H17.8935L13.0534 55.218H11.929L6.89332 44.1645H6.84443V55.218H5.52441V42.9253H5.5733Z" fill="#0069AA"/>
<path d="M29.3827 46.048C32.5116 46.048 33.9294 48.2785 33.9294 50.7569C33.9294 53.2352 32.5605 55.4658 29.3827 55.4658C26.2048 55.4658 24.8359 53.2352 24.8359 50.7569C24.8359 48.2785 26.2537 46.048 29.3827 46.048ZM29.3827 54.4744C31.4849 54.4744 32.6094 52.7891 32.6094 50.7569C32.6094 48.7246 31.4849 47.0393 29.3827 47.0393C27.2804 47.0393 26.156 48.7246 26.156 50.7569C26.156 52.7891 27.2804 54.4744 29.3827 54.4744Z" fill="#0069AA"/>
<path d="M39.4049 48.2289C39.4049 47.5846 39.4049 46.8906 39.3071 46.2462H40.4805V47.9811H40.5783C41.0183 46.9898 41.8494 46.048 43.0716 46.048C43.365 46.048 43.6094 46.0975 43.9028 46.1471V47.2872C43.6094 47.188 43.3161 47.188 43.0227 47.188C41.116 47.188 40.6271 49.1707 40.6271 50.7569V55.1684H39.4538V48.2289H39.4049Z" fill="#0069AA"/>
<path d="M55.5384 54.9205C54.6095 55.2675 53.6806 55.4162 52.7028 55.4162C49.4761 55.4162 48.3027 53.4335 48.3027 50.7073C48.3027 47.9811 49.9161 45.9984 52.4095 45.9984C55.1473 45.9984 56.2717 48.0307 56.2717 50.4595V51.0047H49.6228C49.6228 52.8883 50.7472 54.4248 52.8006 54.4248C53.7295 54.3753 54.6584 54.177 55.5384 53.7805V54.9205ZM54.9517 50.1125C54.9517 48.5263 54.2673 46.9898 52.4584 46.9898C50.6494 46.9898 49.6228 48.6255 49.6228 50.1125H54.9517Z" fill="#0069AA"/>
<path d="M74.8987 47.188H72.6987V52.9874C72.6987 53.7804 73.0409 54.4744 73.9698 54.4744C74.3609 54.4744 74.7032 54.4248 75.0943 54.2761L75.1921 55.1683C74.7032 55.317 74.2143 55.4161 73.7254 55.4161C71.5742 55.4161 71.5254 54.0778 71.5254 52.4421V47.188H69.6187V46.2462H71.5254V44.0652L72.6987 43.6687V46.1966H74.8987V47.188Z" fill="#0069AA"/>
<path d="M81.0591 42.0331H82.2324V47.7333H82.2813C82.9169 46.6428 84.0413 45.9489 85.3125 45.9985C87.9036 45.9985 88.637 47.5846 88.637 49.8151V55.1684H87.4636V49.8151C87.4636 48.2786 87.1214 46.9402 85.1658 46.9402C83.0147 46.9402 82.2813 48.8238 82.2813 50.3604V55.1684H81.0591V42.0331Z" fill="#0069AA"/>
<path d="M100.86 53.7805C100.273 54.8709 98.9528 55.4162 97.7306 55.4162C94.9927 55.4162 94.5527 53.6813 94.5527 52.8883C94.5527 49.8646 98.0239 49.7655 100.517 49.7655H100.713V49.3194C100.713 47.7828 100.126 47.0393 98.5128 47.0393C97.535 47.0393 96.5083 47.2872 95.6772 47.7828V46.6923C96.6061 46.2958 97.535 46.0975 98.5128 46.0975C100.908 46.0975 101.935 47.0889 101.935 49.4185V53.3839C101.935 54.0283 101.935 54.6231 102.033 55.2675H100.86V53.7805ZM100.713 50.7073H100.371C98.3172 50.7073 95.8239 50.9056 95.8239 52.8883C95.8239 54.0779 96.7528 54.524 97.8283 54.524C100.664 54.524 100.713 52.2439 100.713 51.3021V50.7073Z" fill="#0069AA"/>
<path d="M108.388 48.3776C108.388 47.6837 108.388 46.9898 108.291 46.2958H109.464V47.882C109.855 47.0889 110.588 46.048 112.593 46.048C114.988 46.048 115.917 47.535 115.917 49.4681V55.2179H114.744V49.7655C114.744 48.0802 114.108 46.9898 112.446 46.9898C110.246 46.9898 109.562 48.7742 109.562 50.2612V55.2179H108.388V48.3776Z" fill="#0069AA"/>
<path d="M130.78 53.8796C131.562 54.2266 132.442 54.4248 133.322 54.4248C134.447 54.4248 135.473 53.83 135.473 52.8387C135.473 50.7073 130.829 51.0543 130.829 48.4768C130.829 46.6923 132.393 46.048 134.007 46.048C134.838 46.048 135.62 46.1967 136.402 46.4445L136.304 47.3863C135.62 47.1385 134.887 46.9898 134.153 46.9898C132.931 46.9898 132.051 47.3367 132.051 48.4768C132.051 50.1621 136.842 49.9142 136.842 52.8387C136.842 54.7222 134.935 55.3666 133.469 55.3666C132.54 55.3666 131.611 55.2675 130.731 54.9701L130.78 53.8796Z" fill="#0069AA"/>
<path d="M146.767 47.188H144.567V52.9874C144.567 53.7804 144.909 54.4744 145.838 54.4744C146.229 54.4744 146.571 54.4248 146.962 54.2761L147.06 55.1683C146.571 55.317 146.082 55.4161 145.594 55.4161C143.442 55.4161 143.394 54.0778 143.394 52.4421V47.188H141.487V46.2462H143.394V44.0652L144.616 43.6687V46.1966H146.816L146.767 47.188Z" fill="#0069AA"/>
<path d="M152.536 48.2289C152.536 47.5846 152.536 46.8906 152.438 46.2462H153.66V47.9811H153.709C154.149 46.9898 154.98 46.048 156.202 46.048C156.496 46.048 156.74 46.0975 157.034 46.1471V47.2872C156.74 47.2376 156.447 47.188 156.154 47.188C154.247 47.188 153.709 49.1707 153.709 50.7569V55.1684H152.536V48.2289Z" fill="#0069AA"/>
<path d="M168.083 53.7805C167.496 54.8709 166.176 55.4162 164.954 55.4162C162.216 55.4162 161.776 53.6813 161.776 52.8883C161.776 49.8646 165.247 49.7655 167.74 49.7655H167.985V49.3194C167.985 47.7828 167.398 47.0393 165.785 47.0393C164.807 47.0393 163.78 47.2872 162.949 47.7828V46.6923C163.878 46.2958 164.807 46.0975 165.785 46.0975C168.18 46.0975 169.207 47.0889 169.207 49.4185V53.3839C169.207 54.0283 169.207 54.6231 169.305 55.2675H168.132L168.083 53.7805ZM167.936 50.7073H167.594C165.54 50.7073 163.047 50.9056 163.047 52.8883C163.047 54.0779 163.976 54.524 165.051 54.524C167.887 54.524 167.936 52.2439 167.936 51.3021V50.7073Z" fill="#0069AA"/>
<path d="M176.442 43.867H175.22V42.38H176.442V43.867ZM175.22 46.2463H176.442V55.2179H175.22V46.2463Z" fill="#0069AA"/>
<path d="M190.767 54.4744C190.767 56.9528 189.545 58.985 186.22 58.985C185.243 58.9355 184.216 58.7868 183.287 58.4894L183.385 57.3989C184.265 57.7954 185.243 58.0433 186.269 58.0433C189.349 58.0433 189.643 55.9614 189.643 53.4335H189.594C189.056 54.5735 187.883 55.2675 186.66 55.1684C183.532 55.1684 182.554 52.69 182.554 50.7073C182.554 47.9811 183.678 45.9984 186.563 45.9984C187.834 45.9984 188.714 46.1471 189.594 47.2376H189.643V46.1967H190.865L190.767 54.4744ZM186.66 54.2761C188.812 54.2761 189.594 52.3926 189.594 50.7569C189.594 48.5759 188.909 47.0393 186.709 47.0393C184.412 47.0393 183.825 49.022 183.825 50.7569C183.825 52.4917 184.607 54.2266 186.66 54.2761Z" fill="#0069AA"/>
<path d="M196.927 42.0331H198.149V47.7333H198.198C198.834 46.6428 199.958 45.9489 201.23 45.9985C203.821 45.9985 204.554 47.5846 204.554 49.8151V55.1684H203.332V49.8151C203.332 48.2786 202.99 46.9402 201.034 46.9402C198.883 46.9402 198.149 48.8238 198.149 50.3604V55.1684H196.927V42.0331V42.0331Z" fill="#0069AA"/>
<path d="M215.31 47.188H213.11V52.9874C213.11 53.7804 213.452 54.4744 214.381 54.4744C214.772 54.4744 215.114 54.4248 215.505 54.2761L215.603 55.1683C215.114 55.317 214.625 55.4161 214.137 55.4161C211.985 55.4161 211.936 54.0778 211.936 52.4421V47.188H210.03V46.2462H211.936V44.0652L213.159 43.6687V46.1966H215.359V47.188H215.31Z" fill="#0069AA"/>
<path d="M233.448 47.188H231.248V52.9874C231.248 53.7804 231.59 54.4744 232.519 54.4744C232.91 54.4744 233.252 54.4248 233.644 54.2761L233.741 55.1683C233.252 55.317 232.764 55.4161 232.275 55.4161C230.124 55.4161 230.075 54.0778 230.075 52.4421V47.188H228.168V46.2462H230.075V44.0652L231.297 43.6687V46.1966H233.497V47.188H233.448Z" fill="#0069AA"/>
<path d="M245.719 54.9205C244.79 55.2675 243.861 55.4162 242.883 55.4162C239.657 55.4162 238.483 53.4335 238.483 50.7073C238.483 47.9811 240.146 45.9984 242.59 45.9984C245.328 45.9984 246.452 48.0307 246.452 50.4595V51.0047H239.803C239.803 52.8883 240.928 54.4248 242.981 54.4248C243.91 54.3753 244.839 54.177 245.719 53.7805V54.9205ZM245.132 50.1125C245.132 48.5263 244.448 46.9898 242.639 46.9898C240.83 46.9898 239.803 48.6255 239.803 50.1125H245.132Z" fill="#0069AA"/>
<path d="M258.87 54.9205C257.942 55.2675 257.013 55.4162 256.035 55.4162C252.808 55.4162 251.635 53.4335 251.635 50.7073C251.635 47.9811 253.248 45.9984 255.693 45.9984C258.43 45.9984 259.555 48.0307 259.555 50.4595V51.0047H252.906C252.906 52.8883 254.03 54.4248 256.084 54.4248C257.013 54.3753 257.942 54.177 258.822 53.7805L258.87 54.9205ZM258.284 50.1125C258.284 48.5263 257.599 46.9898 255.79 46.9898C253.981 46.9898 252.955 48.6255 252.955 50.1125H258.284Z" fill="#0069AA"/>
<path d="M269.284 47.188H267.084V52.9874C267.084 53.7804 267.426 54.4744 268.404 54.4744C268.795 54.4744 269.137 54.4248 269.528 54.2761L269.626 55.1683C269.137 55.317 268.648 55.4161 268.16 55.4161C266.008 55.4161 265.959 54.0778 265.959 52.4421V47.188H264.004V46.2462H265.911V44.0652L267.133 43.6687V46.1966H269.333L269.284 47.188Z" fill="#0069AA"/>
<path d="M275.444 42.0331H276.667V47.7333H276.715C277.351 46.6428 278.475 45.9489 279.747 45.9985C282.338 45.9985 283.071 47.5846 283.071 49.8151V55.1684H281.849V49.8151C281.849 48.2786 281.507 46.9402 279.551 46.9402C277.4 46.9402 276.667 48.8238 276.667 50.3604V55.1684H275.444V42.0331Z" fill="#0069AA"/>
<path d="M283.951 42.4792H282.924V42.1322H285.418V42.4792H284.391V45.0567H283.902L283.951 42.4792ZM286.102 42.1322H286.884L287.813 44.4123L288.742 42.1818H289.524V45.1062H289.035V42.5287L287.96 45.1062H287.618L286.542 42.5287V45.1062H286.053L286.102 42.1322Z" fill="#0069AA"/>
<path d="M16.8671 14.4241H19.6049C23.6138 14.4241 24.5916 17.0512 24.5916 22.0575C24.5916 26.9151 23.6627 29.6413 19.6538 29.6413H16.8671V14.4241V14.4241ZM5.72021 36.9772H21.5605C29.8717 36.9772 36.1785 33.5075 36.1785 22.3549C36.1785 10.4588 30.3117 7.58386 22.0005 7.58386H5.72021V36.9772Z" fill="#0069AA"/>
<path d="M51.4318 13.8789H51.5296L54.6585 23.495H48.2051L51.4318 13.8789ZM33.8315 36.9277H44.9295L46.7384 30.5831H56.1252L58.0319 36.9277H69.6676L59.3519 7.58386H44.0006L33.8315 36.9277Z" fill="#0069AA"/>
<path d="M70.6943 7.58386H87.1212L90.9346 23.6437H91.0324L94.748 7.58386H111.126V36.9277H101.153L101.006 13.8789H100.908L95.2369 36.9772H85.9968L80.4723 13.8789H80.3256L80.1789 36.9772H70.6943V7.58386Z" fill="#0069AA"/>
<path d="M124.571 22.2557C124.571 19.5295 124.913 14.1267 129.02 14.1267C133.273 14.1267 133.518 19.5295 133.566 22.2557C133.518 25.428 133.42 30.3848 129.02 30.3848C125.011 30.3848 124.571 25.428 124.571 22.2557ZM145.202 22.2557C145.202 12.3918 139.14 7.08813 129.02 7.08813C118.9 7.08813 112.935 12.4414 112.935 22.2557C112.935 32.2683 118.851 37.4233 129.02 37.4233C139.189 37.4233 145.202 32.2683 145.202 22.2557Z" fill="#0069AA"/>
<path d="M146.816 7.58386H163.438L168.816 28.303H168.914V7.58386H178.448V36.9277H162.069L156.447 15.6633H156.349V36.9277H146.816V7.58386Z" fill="#0069AA"/>
<path d="M209.932 7.73254H215.017L224.355 32.1692L233.692 7.73254H238.435V36.4816H235.697V10.5579H235.648L225.528 36.432H223.181L212.768 10.5579H212.67V36.432H209.932V7.73254Z" fill="#00A4E4"/>
<path d="M242.688 7.73254H245.621V36.4816H242.688V7.73254Z" fill="#00A4E4"/>
<path d="M249.679 7.73254H252.906V34.0032H268.453V36.4816H249.679V7.73254V7.73254Z" fill="#00A4E4"/>
<path d="M270.946 7.73254H289.378V10.2109H274.173V20.4713H288.742V22.9497H274.173V34.0032H289.964V36.4816H270.946V7.73254Z" fill="#00A4E4"/>
<path d="M187.736 32.764C189.887 33.8545 192.38 34.4989 195.803 34.4989C200.301 34.4989 204.016 32.6649 204.016 28.5012C204.016 22.7514 187.296 22.0575 187.296 14.3746C187.296 9.66568 192.429 6.74121 198.834 6.74121C201.278 6.74121 203.674 7.03861 206.021 7.68299L205.434 10.3101C203.821 9.61611 201.229 9.21957 198.785 9.21957C195.02 9.21957 190.865 10.4588 190.865 14.2259C190.865 20.0748 207.585 20.1244 207.585 28.6499C207.585 34.5484 201.278 36.8781 195.607 36.8781C192.82 36.9277 190.034 36.4816 187.345 35.6389L187.736 32.764Z" fill="#00A4E4"/>
<path d="M181.625 8.07951H180.598V7.73254H183.092V8.07951H182.065V10.657H181.576L181.625 8.07951ZM183.825 7.73254H184.607L185.536 10.0126L186.465 7.73254H187.247V10.657H186.758V8.07951L185.683 10.657H185.34L184.265 8.07951V10.657H183.776L183.825 7.73254Z" fill="#0069AA"/>
</svg>
