<?xml version="1.0" encoding="utf-8"?>
<!-- Generator: Adobe Illustrator 28.2.0, SVG Export Plug-In . SVG Version: 6.00 Build 0)  -->
<svg version="1.1" id="Layer_1" xmlns="http://www.w3.org/2000/svg" xmlns:xlink="http://www.w3.org/1999/xlink" x="0px" y="0px"
	 viewBox="0 0 32 33" style="enable-background:new 0 0 32 33;" xml:space="preserve">
<path d="M29,32.2h-6c-1.1,0-2.1-0.9-2.1-2.1h1.8c0,0.2,0.1,0.3,0.3,0.3h6c0.3,0,0.5-0.1,0.7-0.3c0.2-0.2,0.3-0.4,0.3-0.7V3.6
	c0-0.3-0.1-0.5-0.3-0.7c-0.2-0.2-0.4-0.3-0.7-0.3H3.3C3,2.6,2.8,2.7,2.6,2.9C2.4,3.1,2.3,3.4,2.3,3.6v25.7c0,0.3,0.1,0.5,0.3,0.7
	s0.4,0.3,0.7,0.3H16v1.8H3.3c-0.7,0-1.5-0.3-2-0.8s-0.8-1.2-0.8-2V3.6c0-0.7,0.3-1.5,0.8-2s1.2-0.8,2-0.8H29c0.8,0,1.5,0.3,2,0.8
	s0.8,1.2,0.8,2v25.7c0,0.7-0.3,1.5-0.8,2C30.5,31.9,29.8,32.2,29,32.2z"/>
<path d="M23,32.2c-1.1,0-2.1-0.9-2.1-2.1v-9.9c0-0.8,0.7-1.5,1.5-1.5h2.8l0.3-2.9h-3.1c-0.8,0-1.5-0.7-1.5-1.5v-2.2
	c0-0.8,0.3-2.8,2.8-2.8h1.9V6.8c-1.6-0.2-4.4-0.5-6,1c-1,0.9-1.5,2.3-1.5,4.3v2.2c0,0.8-0.7,1.5-1.5,1.5h-2.2v2.9h2.2
	c0.8,0,1.5,0.7,1.5,1.5v9.9h-1.8v-9.6H14c-0.8,0-1.5-0.7-1.5-1.5v-3.5c0-0.8,0.7-1.5,1.5-1.5h2.2v-1.9c0-2.5,0.7-4.4,2.1-5.7
	c2.4-2.1,6-1.6,7.7-1.4c0.8,0.1,1.3,0.7,1.3,1.5v3.1c0,0.8-0.7,1.5-1.5,1.5h-2.2c-0.6,0-1,0.1-1,1V14h3.1c0.4,0,0.8,0.2,1.1,0.5
	c0.3,0.3,0.4,0.7,0.4,1.1L27,19.1c-0.1,0.8-0.7,1.3-1.5,1.3h-2.8V30c0,0.2,0.1,0.4,0.3,0.4L23,32.2z"/>
<path d="M16,32.1c-0.9,0,0-1.8,0-1.8s0.3,0.1,0.3-0.2s1.8,0,1.8,0"/>
<path d="M18.1,30.1v0.5c0,0.6-0.7,1.5-2.1,1.5"/>
<path d="M16,32.1"/>
<path d="M18.1,30.1"/>
</svg>
