<?xml version="1.0" encoding="utf-8"?>
<!-- Generator: Adobe Illustrator 28.2.0, SVG Export Plug-In . SVG Version: 6.00 Build 0)  -->
<svg version="1.1" id="Layer_1" xmlns="http://www.w3.org/2000/svg" xmlns:xlink="http://www.w3.org/1999/xlink" x="0px" y="0px"
	 viewBox="0 0 25.2 25.6" style="enable-background:new 0 0 25.2 25.6;" xml:space="preserve">
<path d="M12.8,25.6C5.7,25.6,0,19.9,0,12.8C0,5.7,5.7,0,12.8,0c2.8,0,5.5,0.9,7.7,2.6c0.6,0.5,1,1.2,1.1,2c0.1,0.8-0.2,1.6-0.8,2.2
	l-1.2,1.2c-1,1-2.5,1.1-3.7,0.3c-0.9-0.6-2-0.9-3.1-0.9c-3.1,0-5.5,2.5-5.5,5.5s2.5,5.5,5.5,5.5c1.6,0,3.1-0.7,4.2-1.9h-3.2
	c-1.5,0-2.8-1.3-2.8-2.8V12c0-1.5,1.3-2.8,2.8-2.8h8.6c1.4,0,2.6,1,2.7,2.4c0.3,3-0.5,6.4-2.1,8.9C21.4,22.8,18.4,25.6,12.8,25.6z
	 M12.8,1.8c-6.1,0-11,4.9-11,11s4.9,11,11,11c4.8,0,7.4-2.4,8.7-4.3c1.7-2.6,2.1-5.7,1.8-7.7c-0.1-0.5-0.5-0.8-0.9-0.8h-8.6
	c-0.6,0-1,0.4-1,1v1.7c0,0.6,0.4,1,1,1l5,0l1.1,0.3l-0.5,1c-1.2,2.6-3.8,4.2-6.6,4.2c-4,0-7.3-3.3-7.3-7.3c0-4,3.3-7.3,7.3-7.3
	c1.5,0,2.9,0.4,4.1,1.2c0.4,0.3,1,0.3,1.4-0.1l1.2-1.2c0.2-0.2,0.3-0.5,0.3-0.8c0-0.2-0.1-0.4-0.4-0.6C17.5,2.6,15.2,1.8,12.8,1.8z"
	/>
</svg>
