<?xml version="1.0" encoding="utf-8"?>
<!-- Generator: Adobe Illustrator 28.2.0, SVG Export Plug-In . SVG Version: 6.00 Build 0)  -->
<svg version="1.1" id="Layer_1" xmlns="http://www.w3.org/2000/svg" xmlns:xlink="http://www.w3.org/1999/xlink" x="0px" y="0px"
	 viewBox="0 0 33 33" style="enable-background:new 0 0 33 33;" xml:space="preserve">
<path d="M16.4,24c-2,0-3.9-0.8-5.3-2.2C9.8,20.4,9,18.5,9,16.5c0-2,0.8-3.9,2.2-5.3C12.6,9.8,14.4,9,16.4,9c2,0,3.9,0.8,5.3,2.2
	c1.4,1.4,2.2,3.3,2.2,5.3c0,2-0.8,3.9-2.2,5.3C20.3,23.2,18.4,24,16.4,24z M16.4,10.8c-1.5,0-2.9,0.6-4,1.7c-1.1,1.1-1.7,2.5-1.7,4
	c0,1.5,0.6,2.9,1.7,4c1.1,1.1,2.5,1.7,4,1.7c1.5,0,2.9-0.6,4-1.7c1.1-1.1,1.7-2.5,1.7-4c0-1.5-0.6-2.9-1.7-4
	C19.4,11.4,17.9,10.8,16.4,10.8z"/>
<path d="M23,32.2H9.9c-2.4,0-4.7-0.9-6.4-2.7c-1.7-1.7-2.7-4-2.7-6.4V9.9c0-2.4,0.9-4.7,2.7-6.4c1.7-1.7,4-2.7,6.4-2.7H23
	c2.4,0,4.7,0.9,6.4,2.7c1.7,1.7,2.7,4,2.7,6.4v13.1c0,2.4-0.9,4.7-2.7,6.4C27.7,31.2,25.4,32.2,23,32.2z M9.9,2.6
	c-2,0-3.8,0.8-5.2,2.1C3.3,6.2,2.6,8,2.6,9.9v13.1c0,2,0.8,3.8,2.1,5.2c1.4,1.4,3.2,2.1,5.2,2.1H23c2,0,3.8-0.8,5.2-2.1
	c1.4-1.4,2.1-3.2,2.1-5.2V9.9c0-1.9-0.8-3.8-2.1-5.2c-1.4-1.4-3.2-2.1-5.2-2.1H9.9z"/>
<path d="M25.5,8.4c-0.2,0-0.4-0.1-0.6-0.2c-0.4-0.3-0.4-0.9-0.1-1.3l0,0c0.3-0.4,0.9-0.4,1.3-0.1c0.4,0.3,0.4,0.9,0.1,1.3
	C26,8.3,25.7,8.4,25.5,8.4z"/>
</svg>
