<svg width="322" height="66" viewBox="0 0 322 66" fill="none" xmlns="http://www.w3.org/2000/svg">
<g clip-path="url(#clip0_4_1827)">
<path d="M211.545 0.5C212.657 5.69783 212.834 63.8353 211.46 65.5C210.567 60.4434 210.376 5.18456 211.545 0.5Z" fill="#EA8624"/>
<path d="M227.922 7.78084C228.467 6.88737 228.693 5.54039 229.83 5.21451C231.795 4.75828 233.468 7.08834 232.74 8.85625C232.334 9.82847 231.893 10.7953 231.735 11.8435C231.533 12.7487 231.36 13.6612 231.214 14.5809C230.694 17.0766 230.397 19.6158 230.037 22.1387C229.778 24.4483 229.639 26.7697 229.62 29.0936C231.923 29.0936 234.212 29.3353 236.51 29.4276C237.564 29.6584 238.963 29.5851 239.606 30.6306C239.803 31.1593 239.835 31.735 239.698 32.2822C239.561 32.8293 239.261 33.3224 238.837 33.6966C235.76 33.922 232.678 33.569 229.595 33.6749C229.565 37.3594 229.906 41.0376 230.612 44.6544C230.855 45.681 231.353 46.9275 230.536 47.8372C229.552 49.1163 227.352 48.7117 226.72 47.2941C226.394 46.2778 226.136 45.2408 225.949 44.1901C225.357 40.733 225.221 37.2243 225.218 33.7211C223.632 33.6668 222.046 33.6722 220.463 33.7021C220.102 33.5534 219.784 33.3182 219.536 33.0173C219.289 32.7164 219.12 32.3592 219.045 31.9776C218.83 30.8099 219.558 29.4493 220.795 29.2619C222.22 29.0284 223.681 29.2348 225.123 29.1234C225.355 27.3582 225.227 25.5686 225.423 23.798C225.78 20.3762 226.202 16.9571 226.785 13.5625C226.96 12.4763 227.407 11.3492 227.091 10.2358C226.777 9.30977 227.606 8.57382 227.922 7.78084Z" fill="#EA8624"/>
<path d="M270.67 25.0581C272.081 24.6698 273.557 24.5773 275.006 24.7865C275.794 24.9848 276.508 25.4042 277.064 25.9948C277.62 26.5854 277.995 27.3225 278.143 28.1186C278.416 30.1717 278.301 32.3741 277.208 34.1909C275.982 36.3064 274.028 37.868 272.079 39.2883C269.828 40.9174 267.46 42.3787 264.993 43.6605C265.832 44.888 267.405 45.0401 268.77 45.1107C272.425 45.1895 275.873 43.8045 279.269 42.6421C280.059 42.2891 281.051 42.2076 281.656 41.5559C281.76 39.7092 281.656 37.8571 281.697 36.0104L280.893 35.5379C280.809 34.8299 280.927 34.1127 281.233 33.4683C281.54 32.8238 282.021 32.2781 282.624 31.8935C283.804 31.6056 285.507 31.6735 286.019 33.0015C286.251 35.8122 286.074 38.6392 286.153 41.4581C288.077 39.5381 290.241 37.8653 292.252 36.0485C294.277 34.3837 296.357 32.5181 299.022 32.032C300.658 31.7305 302.582 31.649 303.928 32.7896C305.086 33.7972 305.323 35.413 305.525 36.8469C305.852 38.7669 306.138 40.7412 306.997 42.5118C307.632 43.7366 309.259 43.9918 310.469 43.5519C312.497 42.8377 314.456 41.9225 316.5 41.249C317.898 40.7738 319.397 40.179 320.891 40.5945C322.373 41.3685 322.395 43.9756 320.812 44.6681C319.926 45.0075 318.939 44.9396 318.054 45.2818C316.443 45.8521 314.808 46.3681 313.262 47.1149C311.891 47.7858 310.386 48.1439 308.858 48.1631C306.762 48.2582 304.574 47.3158 303.383 45.5642C302.358 44.1086 301.821 42.3869 301.437 40.676C301.213 39.4811 301.197 38.2319 300.728 37.0886C299.78 36.1001 298.205 36.817 297.248 37.4905C295.577 38.8049 294.081 40.3392 292.375 41.6156C290.321 43.0702 288.525 44.8574 287.063 46.9031C286.491 47.6825 286.123 48.7307 285.155 49.1136C284.621 49.3011 284.042 49.3198 283.497 49.1672C282.951 49.0146 282.467 48.6981 282.108 48.2609C281.689 47.7368 281.713 47.0361 281.623 46.4115C279.522 46.9547 277.557 47.9133 275.434 48.3777C272.008 49.282 268.348 49.7355 264.862 48.8448C263.14 48.4374 261.747 47.1964 260.839 45.719C255.571 48.0246 249.793 50.0071 243.967 49.0729C242.738 48.9219 241.574 48.4365 240.604 47.67C239.634 46.9035 238.894 45.8856 238.467 44.7278C237.745 42.6856 238.148 40.475 238.647 38.4301C239.309 35.5243 240.851 32.9118 242.555 30.4976C244.037 28.564 245.716 26.6739 247.883 25.4899C249.42 24.6181 251.265 24.572 252.982 24.7485C254.691 25.0445 255.923 26.5191 256.253 28.1621C256.645 30.6062 256.16 33.2323 254.617 35.1903C251.756 38.9081 247.294 41.2762 242.656 41.8736C242.656 42.8784 242.928 44.0109 243.945 44.4698C245.983 45.4013 248.305 45.1189 250.458 44.7414C253.729 44.0326 256.85 42.8051 259.924 41.5124C260.376 39.0167 260.894 36.4857 262.153 34.2452C264.137 30.5655 266.77 26.8939 270.67 25.0581ZM249.085 29.634C246.671 31.5779 244.836 34.1425 243.779 37.0505C245.618 36.779 247.322 35.8882 248.85 34.878C250.576 33.7211 252.151 31.9369 252.061 29.7345C251.453 28.6102 249.919 28.9931 249.085 29.634ZM267.65 33.2486C266.312 34.9839 265.47 37.0261 264.72 39.0574C267.246 37.5503 269.649 35.8487 271.907 33.9682C273.15 32.92 274.175 31.3069 273.815 29.6231C273.564 28.7677 272.452 28.9931 271.798 29.1941C270.008 30.0332 268.809 31.7115 267.65 33.2486Z" fill="#EA8624"/>
<path d="M66.6901 13.6656C68.2872 13.356 70.105 13.5678 71.386 14.646C73.1602 16.1152 73.3101 19.116 71.6585 20.7427C70.0069 22.3694 67.317 22.497 65.3356 21.5167C63.1853 20.4304 62.5639 17.3725 63.8993 15.4308C64.5234 14.4803 65.5945 13.9073 66.6901 13.6656Z" fill="#0E4D9A"/>
<path d="M135.638 13.663C137.406 13.3154 139.472 13.682 140.693 15.0968C142.2 16.7914 141.993 19.7135 140.175 21.104C138.467 22.4265 135.913 22.4618 134.057 21.438C131.942 20.2431 131.479 17.1255 132.923 15.2489C133.611 14.4116 134.578 13.8487 135.648 13.663H135.638Z" fill="#0E4D9A"/>
<path d="M3.16412 13.8964C5.34443 13.2772 8.15704 13.8964 9.19269 16.088C10.2038 18.0378 9.42435 20.6639 7.45116 21.6714C5.14548 22.8392 1.70058 22.4019 0.449623 19.9198C-0.746825 17.6088 0.545012 14.4395 3.16412 13.8964Z" fill="#0E4D9A"/>
<path d="M120.648 14.0078C123.624 14.0078 126.603 13.9399 129.576 14.0513C129.557 16.2238 129.576 18.3828 129.563 20.5499V34.9267C129.563 36.1026 129.576 37.2785 129.563 38.4571C129.563 41.3711 129.604 44.285 129.549 47.1962C129.2 47.3483 128.808 47.2913 128.459 47.313C125.859 47.294 123.262 47.313 120.664 47.313C120.659 36.2004 120.653 25.0987 120.648 14.0078Z" fill="#0E4D9A"/>
<path d="M80.9576 24.1265C84.8249 23.1217 88.9948 23.5372 92.734 24.8815C92.3634 26.8965 91.761 28.8627 91.3904 30.8777C89.4445 30.1336 87.4168 29.4656 85.31 29.4873C84.6777 29.5796 83.9092 29.5497 83.4758 30.1037C83.0834 30.4894 83.2878 31.1439 83.7484 31.3856C85.0429 32.2003 86.6046 32.4094 88.0382 32.8955C89.7224 33.4386 91.4204 34.2533 92.5487 35.6628C94.4973 38.1775 94.3038 42.0636 92.1508 44.3991C90.5346 46.1345 88.1881 46.9709 85.8824 47.2941C81.8751 47.8834 77.7825 47.3785 74.0405 45.833C74.5311 43.7501 75.0407 41.6699 75.5449 39.5869C77.8366 40.7568 80.3576 41.4122 82.9308 41.5069C83.7048 41.42 84.7813 41.4553 85.1683 40.6433C85.4272 39.644 84.2117 39.2529 83.4758 39.0139C80.8458 38.3214 78.0114 37.561 76.1445 35.4428C74.3349 33.5418 74.2368 30.5192 75.4278 28.2761C76.5288 26.1443 78.6955 24.7538 80.9576 24.1265Z" fill="#0E4D9A"/>
<path d="M24.6156 23.9581C27.4418 23.3579 30.6932 23.8631 32.8626 25.8754C34.9148 27.8497 35.6752 30.7989 35.6807 33.5662C35.6616 38.1177 35.7025 42.6719 35.6589 47.2234C32.7154 47.2125 29.7766 47.2125 26.8422 47.2234C26.815 43.2178 26.8422 39.2121 26.8422 35.2092C26.7823 34.0252 26.6678 32.7379 25.8856 31.782C24.8336 30.5083 22.6942 30.4486 21.525 31.5729C21.1655 31.887 20.8778 32.2742 20.6813 32.7085C20.4848 33.1428 20.384 33.614 20.3858 34.0903V47.2098H11.5745C11.4165 45.5641 11.5091 43.913 11.4873 42.2618C11.4873 36.2547 11.5173 30.2449 11.3184 24.2378H18.9767C19.0994 25.2779 19.2493 26.3153 19.3474 27.3609C20.631 25.6826 22.4843 24.3573 24.6156 23.9581Z" fill="#0E4D9A"/>
<path d="M146.378 27.2929C148.591 24.7429 152.052 23.4421 155.405 23.6974C156.532 23.7194 157.639 24.0004 158.64 24.5185C159.641 25.0366 160.508 25.7779 161.174 26.6846C161.223 25.8699 161.3 25.0335 161.392 24.2106H169.089C168.816 27.2305 168.893 30.2639 168.879 33.2919V44.1546C168.792 47.2505 168.198 50.5419 166.154 52.9915C164.11 55.441 160.904 56.473 157.838 56.7934C153.663 57.2035 149.3 56.8369 145.449 55.0798C145.994 52.8285 146.58 50.5881 147.136 48.3368C149.352 49.5239 151.811 50.1917 154.325 50.2894C156.132 50.3301 158.141 49.7462 159.231 48.2227C160.122 47.0468 160.212 45.507 160.163 44.1003C159.438 44.935 158.543 45.6056 157.536 46.0669C156.53 46.5283 155.436 46.7698 154.328 46.7753C150.81 47.0115 147.144 45.3821 145.233 42.3759C142.353 37.8189 142.792 31.3529 146.378 27.2929ZM155.211 30.3725C153.213 31.1682 152.434 33.4874 152.439 35.4726C152.445 37.4577 153.407 39.6819 155.437 40.2685C157.4 40.9936 159.891 39.5135 159.918 37.36C159.888 35.7632 160.109 34.1229 159.76 32.5559C159.626 32.1012 159.397 31.6797 159.089 31.3186C158.781 30.9576 158.4 30.6652 157.971 30.4603C157.542 30.2555 157.075 30.1428 156.599 30.1295C156.124 30.1162 155.651 30.2027 155.211 30.3834V30.3725Z" fill="#0E4D9A"/>
<path d="M179.625 27.4778C181.04 25.6746 183.081 24.3194 185.379 23.9854C187.559 23.7383 189.889 23.8686 191.819 25.0038C193.806 26.1471 195.089 28.2355 195.599 30.4352C196.1 32.2547 195.953 34.1584 195.972 36.024V47.3077H187.098C187.098 43.4569 187.098 39.606 187.098 35.7525C187.098 34.4544 187.03 33.0178 186.185 31.9505C185.163 30.6416 183.008 30.5574 181.825 31.6789C181.441 32.0184 181.136 32.4373 180.932 32.9064C180.728 33.3755 180.629 33.8834 180.642 34.3946V47.3159H171.793C171.793 39.6902 171.883 32.0673 171.566 24.4498H179.249C179.416 25.4437 179.541 26.4594 179.625 27.4778Z" fill="#0E4D9A"/>
<path d="M97.0812 26.0764C100.842 24.2895 105.118 23.7219 109.25 24.0587C112.145 24.3302 115.208 25.46 116.835 28.0018C118.626 30.6822 118.457 34.0334 118.443 37.1103C118.508 40.5239 118.233 43.9619 118.77 47.3511C116.107 47.3511 113.447 47.3701 110.785 47.3511C110.626 46.7048 110.485 46.053 110.335 45.4067C108.803 46.9954 106.626 47.8182 104.44 47.8997C101.654 48.155 98.5911 47.2696 96.8605 44.9667C94.4076 41.8736 95.1408 36.8849 98.3213 34.5657C101.556 32.1731 105.767 31.8282 109.662 31.7468C109.586 31.3328 109.382 30.9529 109.079 30.6606C108.775 30.3682 108.387 30.1782 107.969 30.1174C104.813 29.4466 101.507 30.2803 98.6783 31.7088C98.1332 29.8313 97.6009 27.9539 97.0812 26.0764ZM105.012 38.2481C104.026 38.9922 103.952 40.7221 105.012 41.4309C106.375 42.2918 108.302 41.7948 109.245 40.5266C110.062 39.5625 109.825 38.2155 109.874 37.0532C108.231 37.2868 106.378 37.1374 105.012 38.2481Z" fill="#0E4D9A"/>
<path d="M35.043 24.4551C38.2916 24.4007 41.543 24.4252 44.7944 24.4551C45.9909 29.0717 47.6888 33.5852 48.61 38.2833L48.9071 38.6744C49.7547 33.8731 51.3599 29.251 52.4037 24.4931C55.6061 24.3763 58.8111 24.4605 62.0162 24.4523C58.9965 32.0563 55.9849 39.6602 52.9815 47.2641C49.9345 47.2641 46.8875 47.2641 43.8405 47.2641C40.8617 39.6656 38.0136 32.0373 35.043 24.4551Z" fill="#0E4D9A"/>
<path d="M63.5968 24.2867H68.7423C69.9741 24.235 71.208 24.2677 72.4353 24.3844C72.4135 31.9883 72.4135 39.6013 72.4353 47.2234C69.4728 47.2234 66.513 47.2234 63.5532 47.2234C63.5804 39.5896 63.4851 31.9367 63.5968 24.2867Z" fill="#0E4D9A"/>
<path d="M132.454 24.4226C135.417 24.4416 138.379 24.4009 141.342 24.447V47.2371C138.376 47.2507 135.411 47.2371 132.446 47.2371C132.454 39.6359 132.43 32.0293 132.454 24.4226Z" fill="#0E4D9A"/>
<path d="M0.384312 24.5122H9.2364C9.25547 32.1161 9.2364 39.7391 9.2364 47.3539H0.365234C0.387038 39.7391 0.36796 32.127 0.384312 24.5122Z" fill="#0E4D9A"/>
<path d="M201.783 28.6426C201.362 29.0633 200.809 29.3256 200.216 29.3848C199.623 29.4439 199.028 29.2961 198.532 28.9667C198.036 28.6373 197.671 28.1466 197.498 27.5785C197.325 27.0104 197.355 26.4001 197.583 25.8517C197.811 25.3033 198.224 24.8508 198.749 24.5716C199.275 24.2923 199.882 24.2036 200.466 24.3205C201.05 24.4373 201.576 24.7527 201.952 25.2125C202.329 25.6724 202.534 26.2484 202.532 26.8421C202.537 27.1772 202.472 27.5096 202.343 27.8192C202.215 28.1287 202.024 28.4089 201.783 28.6426V28.6426ZM198.409 25.2751C198.199 25.4779 198.033 25.7218 197.923 25.9915C197.812 26.2612 197.758 26.5508 197.766 26.8421C197.76 27.1327 197.813 27.4214 197.923 27.6908C198.033 27.9602 198.196 28.2045 198.403 28.409C198.713 28.7186 199.109 28.9296 199.539 29.0153C199.97 29.1009 200.416 29.0574 200.821 28.8902C201.227 28.7231 201.574 28.4397 201.818 28.0761C202.062 27.7125 202.192 27.2849 202.192 26.8475C202.192 26.4101 202.062 25.9825 201.818 25.6189C201.574 25.2553 201.227 24.972 200.821 24.8048C200.416 24.6376 199.97 24.5941 199.539 24.6797C199.109 24.7654 198.713 24.9764 198.403 25.286L198.409 25.2751ZM199.916 25.4191C200.176 25.4048 200.437 25.4389 200.684 25.5195C200.826 25.5741 200.947 25.6728 201.028 25.801C201.109 25.9292 201.146 26.08 201.134 26.231C201.14 26.3373 201.117 26.4432 201.07 26.5384C201.022 26.6336 200.95 26.7148 200.862 26.7742C200.736 26.8474 200.597 26.8937 200.453 26.91C200.548 26.9192 200.641 26.9481 200.724 26.9948C200.808 27.0416 200.88 27.1052 200.938 27.1815C201.032 27.3078 201.085 27.4592 201.091 27.6161V28.0288C201.09 28.0787 201.099 28.1283 201.115 28.1755L201.134 28.2108H200.668V27.8387C200.685 27.7174 200.668 27.5938 200.62 27.481C200.572 27.3682 200.495 27.2704 200.396 27.1978C200.223 27.1263 200.037 27.0956 199.85 27.1082H199.461V28.1999H198.954V25.4191H199.916ZM200.461 25.8617C200.272 25.7782 200.065 25.7418 199.859 25.7558H199.436V26.7715H199.883C200.044 26.7794 200.204 26.7582 200.357 26.709C200.436 26.6734 200.504 26.6181 200.554 26.5486C200.605 26.479 200.636 26.3976 200.646 26.3123C200.656 26.227 200.643 26.1406 200.609 26.0616C200.575 25.9827 200.521 25.9138 200.453 25.8617H200.461Z" fill="#0E4D9A"/>
</g>
<defs>
<clipPath id="clip0_4_1827">
<rect width="322" height="65" fill="white" transform="translate(0 0.5)"/>
</clipPath>
</defs>
</svg>
