<svg width="292" height="68" viewBox="0 0 292 68" fill="none" xmlns="http://www.w3.org/2000/svg">
<g clip-path="url(#clip0_4_1725)">
<path d="M39.9351 38.5337C39.9351 38.5337 39.5542 51.8946 58.5995 57.1857C53.0916 38.1721 39.9351 38.5337 39.9351 38.5337Z" fill="#1268A9"/>
<path d="M29.1057 27.7878C29.1057 27.7878 29.4867 14.4306 10.4414 9.13574C15.9531 28.1684 29.1057 27.7878 29.1057 27.7878Z" fill="#1268A9"/>
<path d="M34.553 41.6206C34.553 41.6206 24.8438 50.8096 34.553 67.9999C44.1137 50.6573 34.553 41.6206 34.553 41.6206Z" fill="#1268A9"/>
<path d="M34.4887 26.3793C34.4887 26.3793 44.198 17.1903 34.4887 0C24.9318 17.3388 34.4887 26.3793 34.4887 26.3793Z" fill="#1268A9"/>
<path d="M42.1479 33.9657C42.1479 33.9657 51.3392 43.6685 68.5409 33.9657C51.1906 24.4151 42.1479 33.9657 42.1479 33.9657Z" fill="#1268A9"/>
<path d="M26.8967 34.0304C26.8967 34.0304 17.7017 24.3314 0.5 34.0304C17.8502 43.5848 26.8967 34.0304 26.8967 34.0304Z" fill="#1268A9"/>
<path d="M39.8892 27.7573C39.8892 27.7573 53.2551 28.1379 58.5535 9.10522C39.5273 14.6133 39.8892 27.7573 39.8892 27.7573Z" fill="#1268A9"/>
<path d="M29.1516 38.5831C29.1516 38.5831 15.7857 38.2024 10.4873 57.2351C29.5135 51.7271 29.1516 38.5831 29.1516 38.5831Z" fill="#1268A9"/>
<path d="M54.657 48.1337C48.4597 38.309 39.935 38.5336 39.935 38.5336C39.935 38.5336 39.7027 47.2506 49.6519 53.3791C51.5706 51.8875 53.2573 50.1198 54.657 48.1337V48.1337Z" fill="#1882C2"/>
<path d="M29.1062 27.7878C29.1062 27.7878 29.3157 19.7941 20.5853 13.7036C18.4433 15.1885 16.5497 17.0025 14.9746 19.0784C21.0919 28.0238 29.1062 27.7878 29.1062 27.7878Z" fill="#1882C2"/>
<path d="M34.5533 41.6208C34.5533 41.6208 28.4588 47.3839 30.7442 58.3125C33.2361 58.6932 35.7714 58.6932 38.2633 58.3125C40.5564 47.3116 34.5533 41.6208 34.5533 41.6208Z" fill="#1882C2"/>
<path d="M34.4882 26.3794C34.4882 26.3794 40.5826 20.6125 38.2972 9.68394C35.8066 9.30327 33.2726 9.30327 30.7819 9.68394C28.4851 20.6886 34.4882 26.3794 34.4882 26.3794Z" fill="#1882C2"/>
<path d="M42.1484 33.9658C42.1484 33.9658 47.9153 40.0563 58.8511 37.7724C59.232 35.2821 59.232 32.7485 58.8511 30.2583C47.843 27.9705 42.1484 33.9658 42.1484 33.9658Z" fill="#1882C2"/>
<path d="M26.897 34.0307C26.897 34.0307 21.1301 27.9402 10.1905 30.2241C9.80956 32.7144 9.80956 35.248 10.1905 37.7382C21.2024 40.0298 26.897 34.0307 26.897 34.0307Z" fill="#1882C2"/>
<path d="M39.8896 27.7573C39.8896 27.7573 48.0029 27.9743 54.0897 19.086C52.5106 17.0138 50.6115 15.2059 48.4638 13.7302C39.6801 19.8473 39.8896 27.7573 39.8896 27.7573Z" fill="#1882C2"/>
<path d="M29.1519 38.5832C29.1519 38.5832 20.5206 38.3548 14.3804 48.1338C15.7824 50.1237 17.4701 51.8963 19.3893 53.3945C29.388 47.2012 29.1519 38.5832 29.1519 38.5832Z" fill="#1882C2"/>
<path d="M48.9972 41.9138C44.2663 38.4194 39.9354 38.5336 39.9354 38.5336C39.9354 38.5336 39.825 43.0368 43.4512 47.852C45.7664 46.3657 47.6729 44.3244 48.9972 41.9138V41.9138Z" fill="#23ACEA"/>
<path d="M29.1062 27.7877C29.1062 27.7877 29.1976 23.9812 26.4056 19.6379C24.1308 20.9274 22.1938 22.7366 20.7529 24.9176C25.1981 27.9019 29.1062 27.7877 29.1062 27.7877Z" fill="#23ACEA"/>
<path d="M34.5528 41.6206C34.5528 41.6206 31.5437 44.4793 30.5571 49.995C33.1623 50.6621 35.8938 50.6621 38.499 49.995C37.5429 44.4527 34.5528 41.6206 34.5528 41.6206Z" fill="#23ACEA"/>
<path d="M34.4882 26.3792C34.4882 26.3792 37.5011 23.5167 38.4877 18.0049C37.1891 17.6828 35.8566 17.5167 34.5186 17.51C33.1776 17.5155 31.8422 17.6842 30.542 18.0125C31.5019 23.5434 34.4882 26.3792 34.4882 26.3792Z" fill="#23ACEA"/>
<path d="M50.5166 30.0222C44.9821 30.9815 42.1367 33.9658 42.1367 33.9658C42.1367 33.9658 45.0011 36.9768 50.5166 37.9626C50.8418 36.6666 51.0093 35.3362 51.0156 34C51.0138 32.6586 50.8462 31.3226 50.5166 30.0222V30.0222Z" fill="#23ACEA"/>
<path d="M26.8969 34.0307C26.8969 34.0307 24.0325 31.0197 18.5169 30.0376C17.844 32.6417 17.844 35.3739 18.5169 37.978C24.0591 37.015 26.8969 34.0307 26.8969 34.0307Z" fill="#23ACEA"/>
<path d="M42.6206 19.6416C39.7981 23.9849 39.8895 27.7571 39.8895 27.7571C39.8895 27.7571 43.8319 27.8561 48.2694 24.906C46.8271 22.7316 44.8917 20.9279 42.6206 19.6416V19.6416Z" fill="#23ACEA"/>
<path d="M29.152 38.583C29.152 38.583 24.783 38.465 20.0483 41.9213C21.3766 44.3293 23.2839 46.3687 25.5981 47.8557C29.2662 43.0405 29.152 38.583 29.152 38.583Z" fill="#23ACEA"/>
<path d="M188.633 45.3282V41.6892C187.619 42.7658 186.399 43.6279 185.045 44.2243C183.71 44.7981 182.27 45.0897 180.817 45.0808C177.313 45.0808 174.405 43.9109 172.094 41.5712C169.783 39.2314 168.625 36.3004 168.62 32.7781C168.612 31.1803 168.906 29.5954 169.489 28.1074C170.049 26.6636 170.891 25.3452 171.965 24.2286C173.042 23.0617 174.351 22.1322 175.808 21.4993C177.317 20.8895 178.934 20.5891 180.562 20.6162C182.074 20.6008 183.574 20.8895 184.973 21.465C186.356 22.0653 187.602 22.9423 188.633 24.0421V21.2366H193.272V45.3282H188.633ZM173.431 32.7362C173.405 33.7649 173.586 34.7884 173.963 35.7457C174.341 36.7031 174.907 37.5748 175.629 38.309C176.321 39.0371 177.158 39.6132 178.085 40.0006C179.012 40.3879 180.01 40.5779 181.015 40.5586C181.979 40.5557 182.932 40.3536 183.814 39.9652C184.697 39.5767 185.489 39.0103 186.142 38.3014C186.849 37.6146 187.409 36.7923 187.79 35.8837C188.171 34.9752 188.365 33.9991 188.359 33.0141C188.377 31.994 188.192 30.9806 187.814 30.0329C187.436 29.0852 186.873 28.2223 186.157 27.4946C185.499 26.7633 184.694 26.1796 183.793 25.782C182.893 25.3844 181.919 25.1819 180.935 25.1878C179.945 25.1868 178.965 25.3817 178.051 25.7613C177.137 26.1409 176.307 26.6976 175.609 27.3994C174.911 28.1012 174.36 28.9341 173.986 29.8501C173.612 30.7661 173.424 31.747 173.431 32.7362Z" fill="#1268A9"/>
<path d="M237.884 55.7962C232.814 58.1677 224.625 54.3231 224.625 54.3231L226.617 49.8657C228.014 50.6791 229.557 51.209 231.159 51.4252C232.761 51.6415 234.39 51.5396 235.953 51.1256C241.156 49.0511 240.687 44.5365 240.687 44.5365V41.6854C239.672 42.7619 238.45 43.624 237.096 44.2206C235.762 44.7939 234.323 45.0855 232.871 45.077C229.372 45.077 226.463 43.9072 224.145 41.5674C221.826 39.2277 220.666 36.2979 220.663 32.7781C220.655 31.1804 220.949 29.5954 221.532 28.1075C222.092 26.6627 222.935 25.3441 224.011 24.2286C225.088 23.0611 226.397 22.1314 227.855 21.4993C229.364 20.8892 230.981 20.5889 232.608 20.6162C234.118 20.6008 235.616 20.8895 237.012 21.4651C238.398 22.0649 239.646 22.9419 240.68 24.0421V21.2367H245.319V44.5365C245.327 49.4165 242.992 53.4095 237.884 55.7962ZM225.478 32.7362C225.45 33.7652 225.63 34.7891 226.008 35.7467C226.385 36.7043 226.953 37.5759 227.676 38.309C228.368 39.0367 229.203 39.6125 230.13 39.9998C231.057 40.3871 232.054 40.5774 233.058 40.5587C234.021 40.5571 234.974 40.3569 235.856 39.9704C236.738 39.584 237.531 39.0197 238.185 38.3128C238.891 37.6255 239.451 36.8031 239.832 35.8947C240.213 34.9863 240.407 34.0105 240.402 33.0255C240.419 32.0056 240.234 30.9924 239.856 30.0448C239.478 29.0972 238.915 28.2342 238.2 27.5061C237.542 26.7751 236.736 26.1917 235.836 25.7942C234.936 25.3966 233.962 25.1939 232.978 25.1993C231.989 25.1988 231.01 25.3937 230.097 25.7728C229.185 26.1519 228.356 26.7077 227.659 27.4082C226.962 28.1087 226.41 28.9401 226.036 29.8545C225.661 30.769 225.472 31.7483 225.478 32.7362Z" fill="#1268A9"/>
<path d="M256.343 45.3205H251.897V21.0804H255.988V23.726C256.819 22.7528 257.852 21.9732 259.017 21.442C260.157 20.9342 261.395 20.6834 262.643 20.7074C265.708 20.7074 268.061 21.6095 269.701 23.4138C271.341 25.2181 272.162 27.8015 272.162 31.1639V45.3357H267.606V32.0623C267.606 29.5728 267.145 27.7266 266.223 26.5238C265.301 25.3209 263.879 24.7195 261.957 24.7195C259.858 24.7195 258.7 25.4275 257.767 26.8473C256.834 28.2672 256.354 30.6006 256.354 33.859L256.343 45.3205Z" fill="#1268A9"/>
<path d="M95.65 45.3205H91.1973V21.0805H95.2882V23.726C96.124 22.7506 97.1644 21.9709 98.3354 21.4421C99.4768 20.9338 100.716 20.683 101.965 20.7074C105.03 20.7074 107.383 21.6096 109.024 23.4139C110.664 25.2182 111.483 27.8016 111.48 31.164V45.3357H106.913V32.0623C106.913 29.5729 106.454 27.7267 105.535 26.5238C104.615 25.321 103.192 24.7195 101.265 24.7195C99.1658 24.7195 98.0078 25.4275 97.0746 26.8474C96.1414 28.2672 95.65 30.6006 95.65 33.8781V45.3205Z" fill="#23ACEA"/>
<path d="M211.815 45.2976V20.9358H216.889V45.2976H211.815Z" fill="#1268A9"/>
<path d="M210.817 13.3608C210.817 12.6622 211.024 11.9792 211.413 11.3983C211.801 10.8174 212.353 10.3646 212.999 10.0973C213.645 9.8299 214.356 9.75995 215.041 9.89625C215.727 10.0325 216.357 10.369 216.851 10.863C217.346 11.357 217.682 11.9865 217.819 12.6717C217.955 13.3569 217.885 14.0672 217.617 14.7127C217.35 15.3581 216.897 15.9098 216.316 16.298C215.734 16.6861 215.051 16.8933 214.352 16.8933C213.414 16.8933 212.515 16.5211 211.852 15.8587C211.189 15.1962 210.817 14.2977 210.817 13.3608V13.3608Z" fill="#1268A9"/>
<path d="M199.896 45.2977V10.0911H204.97V45.2977H199.896Z" fill="#1268A9"/>
<path d="M139.53 45.2976V20.9358H144.608V45.2976H139.53Z" fill="#23ACEA"/>
<path d="M138.525 13.3608C138.525 12.6622 138.732 11.9792 139.121 11.3983C139.509 10.8174 140.061 10.3646 140.707 10.0973C141.353 9.8299 142.064 9.75995 142.749 9.89625C143.435 10.0325 144.065 10.369 144.559 10.863C145.054 11.357 145.39 11.9865 145.527 12.6717C145.663 13.3569 145.593 14.0672 145.325 14.7127C145.058 15.3581 144.605 15.9098 144.024 16.298C143.442 16.6861 142.759 16.8933 142.06 16.8933C141.122 16.8933 140.223 16.5211 139.56 15.8587C138.897 15.1962 138.525 14.2977 138.525 13.3608V13.3608Z" fill="#23ACEA"/>
<path d="M79.2788 45.2976V20.9358H84.3563V45.2976H79.2788Z" fill="#23ACEA"/>
<path d="M78.2808 13.3608C78.2808 12.6622 78.4881 11.9792 78.8765 11.3983C79.2649 10.8174 79.817 10.3646 80.4629 10.0973C81.1088 9.8299 81.8195 9.75995 82.5052 9.89625C83.1909 10.0325 83.8207 10.369 84.3151 10.863C84.8094 11.357 85.1461 11.9865 85.2825 12.6717C85.4188 13.3569 85.3489 14.0672 85.0813 14.7127C84.8138 15.3581 84.3607 15.9098 83.7794 16.298C83.1981 16.6861 82.5147 16.8933 81.8156 16.8933C80.8784 16.8923 79.9799 16.5198 79.3172 15.8576C78.6545 15.1953 78.2818 14.2974 78.2808 13.3608V13.3608Z" fill="#23ACEA"/>
<path d="M112.943 20.9473H118.706L124.862 34.3006L131.543 20.9473H137.302L124.732 45.2977L112.943 20.9473Z" fill="#23ACEA"/>
<path d="M158.298 30.9432C156.484 30.3608 154.073 29.4205 154.073 28.035C154.073 26.5123 155.106 25.595 157.147 25.3171C158.896 25.0773 160.987 26.1127 161.512 26.6189L164 22.7515C162.225 21.5905 159.303 20.5132 156.443 20.9015C151.997 21.5106 149.24 24.2436 149.24 28.035C149.24 32.7589 154.858 34.5632 156.705 35.1532C159.623 36.0858 160.655 36.8814 160.655 38.1984C160.655 40.6689 157.418 40.863 156.427 40.863C154.557 40.863 151.917 39.6754 151.057 39.2186L148.623 43.0708C149.053 43.303 152.915 45.3243 156.427 45.3243C160.792 45.3243 165.497 43.0936 165.497 38.2022C165.497 33.3108 160.263 31.5941 158.298 30.9432Z" fill="#23ACEA"/>
<path d="M286.274 20.7532C285.241 20.7554 284.231 21.0637 283.373 21.6391C282.515 22.2146 281.847 23.0312 281.454 23.9859C281.06 24.9407 280.958 25.9906 281.162 27.003C281.365 28.0154 281.864 28.9449 282.596 29.674C283.327 30.4031 284.259 30.8991 285.273 31.0992C286.286 31.2994 287.337 31.1948 288.291 30.7986C289.245 30.4024 290.06 29.7324 290.634 28.8733C291.207 28.0142 291.512 27.0045 291.512 25.9719C291.509 24.5861 290.955 23.2582 289.973 22.2797C288.991 21.3012 287.661 20.7522 286.274 20.7532V20.7532ZM290.559 25.9719C290.562 26.8203 290.312 27.6503 289.842 28.3567C289.372 29.0631 288.702 29.6143 287.919 29.9403C287.135 30.2664 286.272 30.3527 285.439 30.1883C284.606 30.0239 283.841 29.6162 283.24 29.0168C282.639 28.4175 282.23 27.6534 282.064 26.8214C281.898 25.9894 281.983 25.1269 282.308 24.3431C282.633 23.5593 283.183 22.8895 283.889 22.4185C284.595 21.9475 285.425 21.6964 286.274 21.6972C287.408 21.7002 288.495 22.1513 289.298 22.9521C290.101 23.7529 290.554 24.8384 290.559 25.9719V25.9719Z" fill="#1C6CA2"/>
<path d="M284.244 23.3265C284.765 23.2545 285.291 23.2176 285.817 23.2161C286.693 23.2161 287.269 23.3531 287.668 23.6462C287.825 23.7554 287.953 23.9012 288.041 24.0711C288.129 24.2409 288.173 24.4296 288.171 24.6207C288.171 25.2906 287.63 25.7398 286.968 25.9263C287.201 26.0015 287.411 26.1373 287.575 26.3198C287.739 26.5024 287.851 26.7252 287.901 26.9655C288.016 27.4507 288.178 27.9237 288.385 28.3777H287.531C287.346 27.9865 287.207 27.5752 287.116 27.152C286.93 26.4364 286.583 26.1737 285.84 26.1509H285.078V28.3968H284.259L284.244 23.3265ZM285.063 25.6599H285.905C286.777 25.6599 287.337 25.2792 287.337 24.6854C287.337 24.023 286.743 23.7338 285.878 23.7338C285.605 23.7292 285.333 23.7483 285.063 23.7909V25.6599Z" fill="#1268A9"/>
</g>
<defs>
<clipPath id="clip0_4_1725">
<rect width="291" height="68" fill="white" transform="translate(0.5)"/>
</clipPath>
</defs>
</svg>
