<svg width="148" height="60" viewBox="0 0 148 60" fill="none" xmlns="http://www.w3.org/2000/svg">
<path d="M142.75 32.53C140.27 32.53 138.25 30.51 138.25 28.03C138.25 25.55 140.27 23.53 142.75 23.53C145.23 23.53 147.25 25.55 147.25 28.03C147.25 30.51 145.23 32.53 142.75 32.53ZM142.75 24.53C140.82 24.53 139.25 26.1 139.25 28.03C139.25 29.96 140.82 31.53 142.75 31.53C144.68 31.53 146.25 29.96 146.25 28.03C146.25 26.1 144.68 24.53 142.75 24.53Z" fill="#3D3935"/>
<path d="M143.33 28.16C143.46 28.11 143.59 28.07 143.69 27.99C143.84 27.88 143.95 27.74 144.03 27.58C144.11 27.42 144.15 27.24 144.15 27.04C144.15 26.76 144.09 26.53 143.98 26.34C143.86 26.15 143.69 26 143.47 25.91C143.25 25.81 142.98 25.76 142.66 25.76H141.25V30.03H141.82V28.3H142.82L143.75 30.03H144.35V29.99L143.34 28.16H143.33ZM141.81 27.84V26.23H142.66C142.88 26.23 143.05 26.26 143.19 26.33C143.33 26.4 143.43 26.49 143.49 26.61C143.56 26.73 143.59 26.88 143.59 27.04C143.59 27.19 143.56 27.32 143.49 27.44C143.42 27.56 143.32 27.66 143.19 27.73C143.05 27.8 142.89 27.84 142.68 27.84H141.82H141.81Z" fill="#3D3935"/>
<path d="M117.41 59.97C107.49 59.97 99.4102 51.89 99.4102 41.97C99.4102 32.05 107.49 23.97 117.41 23.97C127.33 23.97 135.41 32.04 135.41 41.97C135.41 51.9 127.33 59.97 117.41 59.97ZM117.41 31.97C111.9 31.97 107.41 36.46 107.41 41.97C107.41 47.48 111.9 51.97 117.41 51.97C122.92 51.97 127.41 47.48 127.41 41.97C127.41 36.46 122.92 31.97 117.41 31.97Z" fill="#3D3935"/>
<path fill-rule="evenodd" clip-rule="evenodd" d="M0.75 0.0300293H9V8.15003H0.75V0.0300293Z" fill="#2AD2C9"/>
<path fill-rule="evenodd" clip-rule="evenodd" d="M9 8.1499H40.39V17.1399H29.49V59.0599H20.47V17.1399H9V8.1499Z" fill="#3D3935"/>
<path fill-rule="evenodd" clip-rule="evenodd" d="M0.75 25.3501H9V58.5201H0.75V25.3501Z" fill="#3D3935"/>
<path fill-rule="evenodd" clip-rule="evenodd" d="M78.4102 25.3501V58.5201H86.0602V33.6101H96.0402V25.3501H78.4102Z" fill="#3D3935"/>
<path d="M64.7003 44.47H71.3803C71.4903 43.65 71.5703 42.82 71.5703 41.97C71.5703 32.05 63.5003 23.97 53.5703 23.97C43.6403 23.97 35.5703 32.04 35.5703 41.97C35.5703 51.9 43.6403 59.97 53.5703 59.97C59.6803 59.97 65.3603 57.19 68.6103 52.53L63.3103 47.27C61.7003 50.64 58.7502 51.98 53.5603 51.98C48.9103 51.98 45.0003 48.79 43.8903 44.48H64.6803L64.7003 44.47ZM53.5803 31.97C57.8903 31.97 61.5603 34.71 62.9603 38.54H44.2003C45.6003 34.71 49.2703 31.97 53.5803 31.97Z" fill="#3D3935"/>
</svg>
