<svg width="32" height="33" viewBox="0 0 32 33" fill="none" xmlns="http://www.w3.org/2000/svg">
<path d="M24.75 32.2511C21.856 32.2485 19.007 31.5333 16.455 30.1686L15.6675 29.7311C10.2263 26.8056 5.76546 22.3447 2.84 16.9036L2.4025 16.1161C1.00219 13.5496 0.262479 10.6748 0.250001 7.75108V6.57858C0.249266 5.64576 0.620931 4.75123 1.2825 4.09358L4.24 1.13608C4.52723 0.846628 4.93267 0.707118 5.33718 0.758533C5.74169 0.809948 6.09934 1.04648 6.305 1.39858L10.2425 8.15358C10.6407 8.84114 10.5257 9.71066 9.9625 10.2711L6.655 13.5786C6.38032 13.8502 6.31632 14.2699 6.4975 14.6111L7.11 15.7661C9.30982 19.8408 12.6563 23.1812 16.735 25.3736L17.89 26.0036C18.2313 26.1847 18.6509 26.1207 18.9225 25.8461L22.23 22.5386C22.7904 21.9755 23.6599 21.8605 24.3475 22.2586L31.1025 26.1961C31.4546 26.4017 31.6912 26.7594 31.7425 27.1639C31.7939 27.5685 31.6545 27.9739 31.365 28.2611L28.4075 31.2186C27.7498 31.8801 26.8553 32.2518 25.9225 32.2511H24.75Z" fill="#333333"/>
</svg>
