<svg width="26" height="35" viewBox="0 0 26 35" fill="none" xmlns="http://www.w3.org/2000/svg">
<path d="M13.0003 0C6.01084 0 0.324585 5.68628 0.324585 12.6756C0.324585 21.3497 11.668 34.0835 12.151 34.6213C12.6046 35.1265 13.3967 35.1256 13.8496 34.6213C14.3324 34.0835 25.6759 21.3497 25.6759 12.6756C25.6757 5.68628 19.9896 0 13.0003 0ZM13.0003 19.0531C9.4837 19.0531 6.62287 16.1922 6.62287 12.6756C6.62287 9.15906 9.48377 6.29821 13.0003 6.29821C16.5167 6.29821 19.3776 9.15913 19.3776 12.6757C19.3776 16.1922 16.5167 19.0531 13.0003 19.0531Z" fill="#333333"/>
</svg>
