<?xml version="1.0" encoding="UTF-8"?>
<svg id="Layer_1" data-name="Layer 1" xmlns="http://www.w3.org/2000/svg" xmlns:xlink="http://www.w3.org/1999/xlink" viewBox="0 0 260 67">
  <defs>
    <clipPath id="clippath">
      <rect width="260" height="67" style="fill: none; stroke-width: 0px;"/>
    </clipPath>
    <clipPath id="clippath-1">
      <rect width="260" height="67" style="fill: none; stroke-width: 0px;"/>
    </clipPath>
  </defs>
  <g style="clip-path: url(#clippath);">
    <g style="clip-path: url(#clippath-1);">
      <g>
        <path d="M28.38,32.59h-8.52v-8.51h8.52v8.51ZM21.78,30.67h4.67v-4.66h-4.67v4.66Z" style="fill: #3b5a68; stroke-width: 0px;"/>
        <path d="M141.61,32.59h-8.52v-8.51h8.52v8.51ZM135.01,30.67h4.67v-4.66h-4.67v4.66Z" style="fill: #3b5a68; stroke-width: 0px;"/>
        <path d="M173.6,25h-6.6v6.59h6.6v-6.59Z" style="fill: none; stroke: #3b5a68; stroke-miterlimit: 10; stroke-width: 4.26px;"/>
        <path d="M140.6,25h-6.6v6.59h6.6v-6.59Z" style="fill: none; stroke: #3b5a68; stroke-miterlimit: 10; stroke-width: 4.26px;"/>
        <path d="M92.6,25h-6.6v6.59h6.6v-6.59Z" style="fill: none; stroke: #3b5a68; stroke-miterlimit: 10; stroke-width: 4.26px;"/>
        <path d="M59.6,25h-6.6v6.59h6.6v-6.59Z" style="fill: none; stroke: #3b5a68; stroke-miterlimit: 10; stroke-width: 4.26px;"/>
        <path d="M27.6,25h-6.6v6.59h6.6v-6.59Z" style="fill: none; stroke: #3b5a68; stroke-miterlimit: 10; stroke-width: 4.26px;"/>
        <path d="M239.17,25.05h-6.6v6.59h6.6v-6.59Z" style="fill: none; stroke: #3b5a68; stroke-miterlimit: 10; stroke-width: 4.26px;"/>
        <path d="M61.01,32.59h-8.52v-8.51h8.52v8.51ZM54.42,30.67h4.67v-4.66h-4.67v4.66Z" style="fill: #3b5a68; stroke-width: 0px;"/>
        <path d="M257.96,30.37H2.03c-1.13,0-2.03-.91-2.03-2.03s.91-2.03,2.03-2.03h255.93c1.13,0,2.04.91,2.04,2.03s-.91,2.03-2.04,2.03Z" style="fill: #3b5a68; stroke-width: 0px;"/>
        <path d="M203.29,44.59c-8.98,0-16.28-7.29-16.28-16.25s7.3-16.25,16.28-16.25,16.28,7.29,16.28,16.25c0,1.12-.91,2.03-2.04,2.03h-26.28c.97,5.76,6,10.16,12.04,10.16,4.35,0,8.4-2.33,10.58-6.09.57-.97,1.81-1.3,2.78-.74.97.56,1.31,1.81.74,2.78-2.9,5.01-8.31,8.12-14.1,8.12ZM191.25,26.31h24.07c-.97-5.76-6-10.16-12.04-10.16s-11.07,4.4-12.04,10.16Z" style="fill: #333; stroke-width: 0px;"/>
        <path d="M206.58,25.05h-6.6v6.59h6.6v-6.59Z" style="fill: #3b5a68; stroke: #3b5a68; stroke-miterlimit: 10; stroke-width: 4.26px;"/>
        <path d="M24.12,12.09c-4.86,0-9.22,2.14-12.21,5.52V2.03c0-1.12-.91-2.03-2.03-2.03s-2.03.91-2.03,2.03v26.31c0,8.96,7.3,16.25,16.28,16.25s16.28-7.29,16.28-16.25-7.3-16.25-16.28-16.25ZM24.12,40.53c-6.73,0-12.21-5.47-12.21-12.19s5.48-12.19,12.21-12.19,12.21,5.47,12.21,12.19-5.48,12.19-12.21,12.19Z" style="fill: #333; stroke-width: 0px;"/>
        <path d="M56.76,12.09c-8.98,0-16.28,7.29-16.28,16.25s7.3,16.25,16.28,16.25c4.86,0,9.22-2.14,12.21-5.52v3.49c0,1.12.91,2.03,2.03,2.03s2.03-.91,2.03-2.03v-14.22c0-8.96-7.3-16.25-16.28-16.25ZM56.76,40.53c-6.73,0-12.21-5.47-12.21-12.19s5.48-12.19,12.21-12.19,12.21,5.47,12.21,12.19-5.48,12.19-12.21,12.19Z" style="fill: #333; stroke-width: 0px;"/>
        <path d="M137.35,12.09c-8.98,0-16.28,7.29-16.28,16.25s7.3,16.25,16.28,16.25c4.86,0,9.22-2.14,12.21-5.52v3.49c0,1.12.91,2.03,2.04,2.03s2.04-.91,2.04-2.03v-14.22c0-8.96-7.3-16.25-16.28-16.25ZM137.35,40.53c-6.73,0-12.21-5.47-12.21-12.19s5.48-12.19,12.21-12.19,12.21,5.47,12.21,12.19-5.48,12.19-12.21,12.19Z" style="fill: #333; stroke-width: 0px;"/>
        <path d="M235.88,12.09c-8.98,0-16.28,7.29-16.28,16.25s7.3,16.25,16.28,16.25c4.86,0,9.22-2.14,12.21-5.52v3.49c0,1.12.91,2.03,2.03,2.03s2.04-.91,2.04-2.03v-14.22c0-8.96-7.3-16.25-16.28-16.25ZM235.88,40.53c-6.73,0-12.21-5.47-12.21-12.19s5.48-12.19,12.21-12.19,12.21,5.47,12.21,12.19-5.48,12.19-12.21,12.19Z" style="fill: #333; stroke-width: 0px;"/>
        <path d="M170.7,12.09c-8.98,0-16.28,7.29-16.28,16.25v14.22c0,1.12.91,2.03,2.04,2.03s2.03-.91,2.03-2.03v-14.22c0-6.72,5.48-12.19,12.21-12.19s12.21,5.47,12.21,12.19c0,1.12.91,2.03,2.04,2.03s2.04-.91,2.04-2.03c0-8.96-7.3-16.25-16.28-16.25Z" style="fill: #333; stroke-width: 0px;"/>
        <path d="M103.64,12.09c-1.13,0-2.04.91-2.04,2.03v14.22c0,6.72-5.48,12.19-12.21,12.19s-12.21-5.47-12.21-12.19v-14.22c0-1.12-.91-2.03-2.03-2.03s-2.03.91-2.03,2.03v14.22c0,8.96,7.3,16.25,16.28,16.25,4.86,0,9.22-2.14,12.21-5.52v11.67c0,6.72-5.48,12.19-12.21,12.19s-12.21-5.47-12.21-12.19c0-1.12-.91-2.03-2.03-2.03s-2.03.91-2.03,2.03c0,8.96,7.3,16.25,16.28,16.25s16.28-7.29,16.28-16.25V14.12c0-1.12-.91-2.03-2.03-2.03Z" style="fill: #333; stroke-width: 0px;"/>
        <path d="M120.94,65.34c-3.57,0-6.75-3.04-6.75-6.6,0-3.86,3.04-6.72,6.94-6.72,3.5,0,6.8,2.74,6.75,6.76-.04,3.38-2.88,6.56-6.94,6.56ZM121.01,54.19c-2.38,0-4.44,2.01-4.44,4.48s1.99,4.5,4.4,4.5,4.53-1.96,4.53-4.52-1.99-4.46-4.49-4.46Z" style="fill: #333; stroke-width: 0px;"/>
        <path d="M130.1,65.02v-12.66h2.22v1.14h.05c.57-.84,1.55-1.4,3.23-1.49v2.45c-2.06.07-3.11,1.33-3.11,3.45v7.11h-2.38Z" style="fill: #333; stroke-width: 0px;"/>
        <path d="M138.12,65.02v-10.49h-1.72v-2.17h1.72v-4.25h2.38v4.25h2.08v2.17h-2.08v10.49h-2.38Z" style="fill: #333; stroke-width: 0px;"/>
        <path d="M153.01,65.02v-6.88c0-2.72-1.05-3.95-3.16-3.95s-3.34,1.51-3.34,3.98v6.85h-2.38v-16.91h2.38v5.6h.05c.76-1.12,1.97-1.69,3.55-1.69,3.02,0,5.29,1.92,5.29,5.39v7.61h-2.38Z" style="fill: #333; stroke-width: 0px;"/>
        <path d="M164.27,65.34c-3.57,0-6.75-3.04-6.75-6.6,0-3.86,3.04-6.72,6.94-6.72,3.5,0,6.8,2.74,6.75,6.76-.04,3.38-2.88,6.56-6.94,6.56ZM164.34,54.19c-2.38,0-4.44,2.01-4.44,4.48s1.99,4.5,4.4,4.5,4.53-1.96,4.53-4.52-1.99-4.46-4.49-4.46Z" style="fill: #333; stroke-width: 0px;"/>
        <path d="M183.84,65.02v-1.81h-.04c-.99,1.37-2.63,2.13-4.49,2.13-3.69,0-6.59-2.79-6.59-6.51s2.75-6.81,6.52-6.81c1.72,0,3.34.62,4.37,1.9h.05v-5.81h2.38v16.91h-2.2,0ZM179.42,54.19c-2.43,0-4.33,2.03-4.33,4.52s1.94,4.46,4.33,4.46,4.42-1.96,4.42-4.37c0-2.58-1.74-4.61-4.42-4.61Z" style="fill: #333; stroke-width: 0px;"/>
        <path d="M195.06,65.34c-3.57,0-6.75-3.04-6.75-6.6,0-3.86,3.04-6.72,6.94-6.72,3.5,0,6.8,2.74,6.75,6.76-.05,3.38-2.89,6.56-6.94,6.56ZM195.13,54.19c-2.38,0-4.44,2.01-4.44,4.48s1.99,4.5,4.4,4.5,4.53-1.96,4.53-4.52-1.99-4.46-4.49-4.46Z" style="fill: #333; stroke-width: 0px;"/>
        <path d="M213.09,65.02v-6.9c0-2.67-1.05-3.93-3.16-3.93s-3.34,1.53-3.34,3.91v6.93h-2.38v-12.66h2.22v1.35h.05c.94-1.21,2.24-1.69,3.71-1.69,3.04,0,5.29,1.92,5.29,5.42v7.58h-2.38Z" style="fill: #333; stroke-width: 0px;"/>
        <path d="M218.58,65.02v-10.49h-1.72v-2.17h1.72v-4.25h2.38v4.25h2.09v2.17h-2.09v10.49h-2.38Z" style="fill: #333; stroke-width: 0px;"/>
        <path d="M224.58,50.9v-2.79h2.38v2.79h-2.38ZM224.58,65.02v-12.66h2.38v12.66h-2.38Z" style="fill: #333; stroke-width: 0px;"/>
        <path d="M241.98,60.84c-1.01,2.86-3.43,4.5-6.25,4.5-3.64,0-6.5-2.93-6.5-6.54,0-3.81,2.77-6.79,6.48-6.79,2.88,0,5.52,1.81,6.27,4.55h-2.63c-.71-1.49-1.85-2.37-3.57-2.37-2.5,0-4.16,1.9-4.16,4.48s1.72,4.5,4.12,4.5c1.62,0,2.93-.87,3.6-2.33h2.66Z" style="fill: #333; stroke-width: 0px;"/>
        <path d="M249.26,55.72c-.11-.91-.64-1.53-1.62-1.53-.91,0-1.49.62-1.49,1.35,0,1.07,1.1,1.4,2.36,1.78,1.79.55,3.43,1.62,3.43,3.98s-1.79,4.05-4.25,4.05c-2.29,0-4.49-1.55-4.49-4.48h2.38c.11,1.53.89,2.31,2.15,2.31,1.1,0,1.83-.71,1.83-1.74,0-.87-.67-1.44-2.15-1.92-3.11-.98-3.64-2.33-3.64-3.77,0-2.24,1.9-3.72,3.98-3.72s3.82,1.46,3.89,3.7h-2.38Z" style="fill: #333; stroke-width: 0px;"/>
      </g>
    </g>
  </g>
</svg>