<svg width="162" height="46" viewBox="0 0 162 46" fill="none" xmlns="http://www.w3.org/2000/svg">
<g clip-path="url(#clip0_4_1791)">
<path d="M26.4899 10.49H21.8799V24.4H26.4899V10.49Z" fill="#0277BD"/>
<path d="M19.7902 14.75H15.1802V24.39H19.7902V14.75Z" fill="#0277BD"/>
<path d="M13.0997 19.98H8.48975V24.39H13.0997V19.98Z" fill="#0277BD"/>
<path d="M4.83996 22.79C4.09996 21.09 3.67996 19.22 3.67996 17.25C3.67996 9.61997 9.85996 3.43997 17.49 3.43997C25.12 3.43997 31.3 9.61997 31.3 17.25C31.3 19.22 30.88 21.09 30.14 22.79L32.93 24.39C33.94 22.22 34.51 19.81 34.51 17.26C34.52 7.83997 26.89 0.219971 17.49 0.219971C8.08996 0.219971 0.459961 7.83997 0.459961 17.25C0.459961 19.8 1.03996 22.21 2.03996 24.38L4.82996 22.78L4.83996 22.79Z" fill="#0277BD"/>
<path d="M28.2899 25.8499C25.7599 29.0299 21.8599 31.0699 17.4899 31.0699C13.1199 31.0699 9.21988 29.0299 6.68988 25.8499L3.87988 27.4499C6.98988 31.5899 11.9199 34.2799 17.4899 34.2799C23.0599 34.2799 27.9999 31.5899 31.0999 27.4499L28.2899 25.8499Z" fill="#002170"/>
<path d="M61.3094 5.46997H57.8494V9.74997H54.3994V12.77H57.8494V26.96C57.8494 32.81 61.4294 34.08 64.1694 34.08H68.9794V30.97H65.5394C61.9594 30.97 61.3094 28.42 61.3094 26.96V12.77H68.9794V9.74997H61.3094V5.46997Z" fill="#0277BD"/>
<path d="M41.5996 16.3699V9.74987H38.1396V34.0799H41.5996V25.8499C41.5996 18.5399 45.6896 12.9099 51.5296 12.9099V9.74987C51.5296 9.74987 44.3996 9.63987 41.5996 16.3699Z" fill="#0277BD"/>
<path d="M85.0995 9.13991C80.4695 9.13991 79.0195 10.4999 76.4395 13.9199V0.409912H72.9795V34.0799H76.4395V21.9199C76.4395 15.8899 79.4895 12.3499 83.7795 12.3499C88.0695 12.3499 90.7595 15.3699 90.7595 20.2199V34.0799H94.2195V20.2199C94.2195 11.7299 89.3895 9.13991 85.0995 9.13991Z" fill="#0277BD"/>
<path d="M110.09 9.13989C102.99 9.13989 97.2397 14.8899 97.2397 21.9899C97.2397 29.0899 102.99 34.8399 110.09 34.8399C117.19 34.8399 122.94 29.0899 122.94 21.9899C122.94 14.8899 117.19 9.13989 110.09 9.13989ZM110.09 31.5799C105.04 31.5799 100.94 27.2799 100.94 21.9899C100.94 16.6999 105.04 12.3999 110.09 12.3999C115.14 12.3999 119.24 16.6999 119.24 21.9899C119.24 27.2799 115.14 31.5799 110.09 31.5799Z" fill="#0277BD"/>
<path d="M154.75 9.69995H148.05V34.12H154.75V9.69995Z" fill="#002170"/>
<path d="M128.33 0.839844H126.35V34.1298H133.05V20.5498H142.15V14.4198H133.05V6.96984H145.31V0.839844H133.05H128.33Z" fill="#002170"/>
<path d="M151.35 7.87984C153.43 7.87984 155.12 6.18984 155.12 4.10984C155.12 2.02984 153.43 0.339844 151.35 0.339844C149.27 0.339844 147.58 2.02984 147.58 4.10984C147.58 6.18984 149.27 7.87984 151.35 7.87984Z" fill="#002170"/>
<path d="M2.80023 45.3801C2.75023 45.3601 2.74023 45.3201 2.74023 45.2501V44.4901C2.74023 44.4901 2.77023 44.4301 2.81023 44.4601C3.36023 44.8301 4.03023 44.9701 4.61023 44.9701C5.62023 44.9701 6.08023 44.5201 6.08023 43.8901C6.08023 43.4001 5.80023 43.0301 4.84023 42.6001L4.38023 42.4101C3.08023 41.8501 2.78023 41.1901 2.78023 40.4901C2.78023 39.4001 3.62023 38.6201 5.04023 38.6201C5.70023 38.6201 6.27023 38.7201 6.59023 38.9001C6.63023 38.9201 6.64023 38.9501 6.64023 39.0101V39.7101C6.64023 39.7101 6.61023 39.7801 6.56023 39.7501C6.19023 39.5201 5.62023 39.4001 5.02023 39.4001C3.93023 39.4001 3.63023 39.9701 3.63023 40.4101C3.63023 40.8801 3.90023 41.2401 4.84023 41.6401L5.29023 41.8301C6.58023 42.3801 6.96023 43.0301 6.96023 43.8101C6.96023 44.9401 6.11023 45.7601 4.58023 45.7601C3.86023 45.7601 3.22023 45.6001 2.81023 45.3601L2.80023 45.3801Z" fill="#002170"/>
<path d="M13.5301 39.54H11.2801C11.2801 39.54 11.2201 39.52 11.2301 39.47L11.3301 38.81C11.3301 38.81 11.3601 38.75 11.4101 38.75H16.5401C16.5901 38.75 16.6101 38.77 16.6201 38.82L16.6901 39.47C16.7001 39.52 16.6801 39.54 16.6401 39.54H14.3901V45.6C14.3901 45.66 14.3701 45.68 14.3201 45.68H13.6001C13.5501 45.68 13.5201 45.66 13.5201 45.61V39.54H13.5301Z" fill="#002170"/>
<path d="M21.5603 43.5L20.8003 45.62C20.8003 45.62 20.7703 45.68 20.7203 45.68H20.0103C19.9603 45.68 19.9403 45.65 19.9503 45.6L22.2403 39.23C22.2703 39.15 22.3003 39.07 22.3103 38.8C22.3103 38.77 22.3303 38.75 22.3603 38.75H23.3903C23.3903 38.75 23.4403 38.76 23.4503 38.8L25.9203 45.61C25.9203 45.61 25.9303 45.68 25.8803 45.68H25.0803C25.0803 45.68 25.0203 45.66 25.0003 45.63L24.2303 43.5H21.5603ZM23.9903 42.69C23.7603 42.01 23.1003 40.17 22.9003 39.46H22.8903C22.7103 40.13 22.2103 41.54 21.8103 42.69H23.9903Z" fill="#002170"/>
<path d="M30.6904 45.6802C30.6904 45.6802 30.6304 45.6702 30.6304 45.6202V38.8402C30.6304 38.7902 30.6404 38.7602 30.6904 38.7602C31.2804 38.7402 31.8104 38.7302 32.5204 38.7302C34.0604 38.7302 35.0904 39.3902 35.0904 40.7302C35.0904 41.7202 34.4204 42.3302 33.6404 42.5902C34.0004 43.0802 35.4004 45.1502 35.6804 45.6002C35.7004 45.6402 35.7004 45.6802 35.6504 45.6802H34.7704C34.7104 45.6802 34.6904 45.6702 34.6504 45.6402C34.3204 45.1502 33.4504 43.8002 32.9304 42.9902C32.8504 42.8602 32.7904 42.8202 32.6904 42.8202H31.4904V45.6102C31.4904 45.6102 31.4704 45.6702 31.4304 45.6702H30.7004L30.6904 45.6802ZM32.6104 42.0602C33.6104 42.0602 34.2204 41.5502 34.2204 40.7702C34.2204 39.9902 33.6104 39.5002 32.4904 39.5002C32.0904 39.5002 31.7004 39.5102 31.4904 39.5202V42.0602H32.6104Z" fill="#002170"/>
<path d="M41.8001 39.54H39.5501C39.5501 39.54 39.4901 39.52 39.5001 39.47L39.6001 38.81C39.6001 38.81 39.6301 38.75 39.6801 38.75H44.8101C44.8601 38.75 44.8801 38.77 44.8901 38.82L44.9601 39.47C44.9701 39.52 44.9501 39.54 44.9101 39.54H42.6601V45.6C42.6601 45.66 42.6401 45.68 42.5901 45.68H41.8701C41.8201 45.68 41.7901 45.66 41.7901 45.61V39.54H41.8001Z" fill="#002170"/>
<path d="M56.1504 38.7402H57.3204C57.3704 38.7402 57.3804 38.7602 57.4004 38.8002C57.7604 39.8802 59.0304 43.6502 59.2504 44.5602H59.2604C59.5004 43.6902 60.9004 39.8702 61.2604 38.8002C61.2604 38.7602 61.2804 38.7402 61.3304 38.7402H62.4604C62.5104 38.7402 62.5104 38.7502 62.5204 38.7902L62.8804 45.6102C62.8804 45.6102 62.8604 45.6702 62.8204 45.6702H62.0404C61.9904 45.6702 61.9704 45.6602 61.9704 45.6202C61.8804 43.2102 61.7704 39.9802 61.7704 39.3502C61.5204 40.2902 60.1104 44.2602 59.6704 45.6102C59.6604 45.6602 59.6304 45.6702 59.5904 45.6702H58.8504C58.7904 45.6702 58.7704 45.6602 58.7604 45.6102C58.2004 43.8702 57.1004 40.4002 56.8204 39.3402H56.8004C56.8004 40.2502 56.6004 43.4002 56.4904 45.6102C56.4904 45.6602 56.4704 45.6702 56.4204 45.6702H55.7104C55.6604 45.6702 55.6504 45.6602 55.6504 45.6102L56.1104 38.8002C56.1204 38.7402 56.1404 38.7402 56.1804 38.7402H56.1504Z" fill="#002170"/>
<path d="M74.1003 42.1701C74.1103 44.4301 72.7803 45.7801 70.9603 45.7801C68.9603 45.7801 67.7803 44.2601 67.7803 42.1901C67.7803 40.1201 69.1103 38.6301 70.9403 38.6301C72.9103 38.6301 74.0903 40.1801 74.1003 42.1701ZM70.9803 44.9901C72.3803 44.9901 73.2103 43.8601 73.1903 42.1901C73.1903 40.5601 72.3003 39.4201 70.9203 39.4201C69.6603 39.4201 68.6603 40.4001 68.6603 42.1901C68.6603 43.7101 69.4603 44.9901 70.9703 44.9901H70.9803Z" fill="#002170"/>
<path d="M79.2304 45.6802C79.2304 45.6802 79.1704 45.6702 79.1704 45.6202V38.8402C79.1704 38.7902 79.1804 38.7602 79.2304 38.7602C79.8204 38.7402 80.3504 38.7302 81.0604 38.7302C82.6004 38.7302 83.6304 39.3902 83.6304 40.7302C83.6304 41.7202 82.9604 42.3302 82.1804 42.5902C82.5404 43.0802 83.9404 45.1502 84.2204 45.6002C84.2404 45.6402 84.2404 45.6802 84.1904 45.6802H83.3104C83.2504 45.6802 83.2304 45.6702 83.1904 45.6402C82.8604 45.1502 81.9904 43.8002 81.4704 42.9902C81.3904 42.8602 81.3304 42.8202 81.2304 42.8202H80.0304V45.6102C80.0304 45.6102 80.0104 45.6702 79.9704 45.6702H79.2404L79.2304 45.6802ZM81.1504 42.0602C82.1504 42.0602 82.7604 41.5502 82.7604 40.7702C82.7604 39.9902 82.1504 39.5002 81.0304 39.5002C80.6304 39.5002 80.2404 39.5102 80.0304 39.5202V42.0602H81.1504Z" fill="#002170"/>
<path d="M93.0502 45.62C93.0502 45.67 93.0202 45.68 92.9802 45.68H88.9902C88.9202 45.68 88.9102 45.66 88.9102 45.6V38.82C88.9102 38.77 88.9302 38.75 88.9802 38.75H92.8102C92.8602 38.75 92.8702 38.76 92.8802 38.81L92.9602 39.47C92.9602 39.47 92.9602 39.54 92.9102 39.54H89.7702V41.73H92.6002C92.6002 41.73 92.6602 41.75 92.6602 41.79V42.46C92.6602 42.51 92.6302 42.52 92.6002 42.52H89.7702V44.87H93.1102C93.1602 44.87 93.1702 44.89 93.1602 44.93L93.0402 45.6L93.0502 45.62Z" fill="#002170"/>
<path d="M103.8 45.3801C103.75 45.3601 103.74 45.3201 103.74 45.2501V44.4901C103.74 44.4901 103.77 44.4301 103.81 44.4601C104.36 44.8301 105.03 44.9701 105.6 44.9701C106.61 44.9701 107.07 44.5201 107.07 43.8901C107.07 43.4001 106.79 43.0301 105.83 42.6001L105.37 42.4101C104.07 41.8501 103.77 41.1901 103.77 40.4901C103.77 39.4001 104.61 38.6201 106.03 38.6201C106.69 38.6201 107.26 38.7201 107.58 38.9001C107.62 38.9201 107.63 38.9501 107.63 39.0101V39.7101C107.63 39.7101 107.6 39.7801 107.55 39.7501C107.18 39.5201 106.6 39.4001 106.01 39.4001C104.92 39.4001 104.62 39.9701 104.62 40.4101C104.62 40.8801 104.89 41.2401 105.83 41.6401L106.28 41.8301C107.57 42.3801 107.95 43.0301 107.95 43.8101C107.95 44.9401 107.1 45.7601 105.57 45.7601C104.85 45.7601 104.2 45.6001 103.8 45.3601V45.3801Z" fill="#002170"/>
<path d="M113.27 38.7402H114.44C114.49 38.7402 114.5 38.7602 114.52 38.8002C114.88 39.8802 116.15 43.6502 116.37 44.5602C116.61 43.6902 118.01 39.8702 118.37 38.8002C118.38 38.7602 118.39 38.7402 118.44 38.7402H119.57C119.62 38.7402 119.62 38.7502 119.63 38.7902L119.99 45.6102C119.99 45.6102 119.97 45.6702 119.93 45.6702H119.15C119.1 45.6702 119.08 45.6602 119.08 45.6202C118.99 43.2102 118.88 39.9802 118.88 39.3502H118.87C118.62 40.2902 117.21 44.2602 116.77 45.6102C116.76 45.6602 116.73 45.6702 116.69 45.6702H115.95C115.89 45.6702 115.87 45.6602 115.86 45.6102C115.3 43.8702 114.2 40.4002 113.92 39.3402H113.9C113.89 40.2502 113.7 43.4002 113.59 45.6102C113.59 45.6602 113.57 45.6702 113.52 45.6702H112.81C112.76 45.6702 112.75 45.6602 112.75 45.6102L113.21 38.8002C113.22 38.7402 113.24 38.7402 113.28 38.7402H113.27Z" fill="#002170"/>
<path d="M126.18 45.61C126.18 45.66 126.18 45.68 126.12 45.68H125.38C125.33 45.68 125.31 45.66 125.31 45.61V38.82C125.31 38.77 125.33 38.75 125.37 38.75H126.12C126.12 38.75 126.18 38.77 126.18 38.81V45.61Z" fill="#002170"/>
<path d="M131.69 45.68C131.63 45.68 131.61 45.65 131.61 45.6V38.82C131.61 38.82 131.62 38.75 131.67 38.75H132.43C132.43 38.75 132.48 38.77 132.48 38.81V44.89H135.73C135.78 44.89 135.79 44.92 135.78 44.95L135.66 45.62C135.65 45.67 135.62 45.68 135.58 45.68H131.7H131.69Z" fill="#002170"/>
<path d="M144.59 45.62C144.58 45.67 144.56 45.68 144.52 45.68H140.53C140.46 45.68 140.45 45.66 140.45 45.6V38.82C140.45 38.77 140.47 38.75 140.52 38.75H144.35C144.4 38.75 144.41 38.76 144.42 38.81L144.5 39.47C144.5 39.47 144.5 39.54 144.45 39.54H141.31V41.73H144.14C144.14 41.73 144.2 41.75 144.2 41.79V42.46C144.2 42.51 144.17 42.52 144.14 42.52H141.31V44.87H144.65C144.7 44.87 144.71 44.89 144.7 44.93L144.58 45.6L144.59 45.62Z" fill="#002170"/>
<path d="M149.32 45.3801C149.27 45.3601 149.26 45.3201 149.26 45.2501V44.4901C149.26 44.4901 149.29 44.4301 149.33 44.4601C149.88 44.8301 150.55 44.9701 151.12 44.9701C152.13 44.9701 152.59 44.5201 152.59 43.8901C152.59 43.4001 152.31 43.0301 151.35 42.6001L150.89 42.4101C149.59 41.8501 149.29 41.1901 149.29 40.4901C149.29 39.4001 150.13 38.6201 151.55 38.6201C152.21 38.6201 152.78 38.7201 153.1 38.9001C153.14 38.9201 153.15 38.9501 153.15 39.0101V39.7101C153.15 39.7101 153.12 39.7801 153.07 39.7501C152.7 39.5201 152.12 39.4001 151.53 39.4001C150.44 39.4001 150.15 39.9701 150.15 40.4101C150.15 40.8801 150.42 41.2401 151.36 41.6401L151.81 41.8301C153.1 42.3801 153.48 43.0301 153.48 43.8101C153.48 44.9401 152.63 45.7601 151.1 45.7601C150.38 45.7601 149.74 45.6001 149.33 45.3601L149.32 45.3801Z" fill="#002170"/>
<path d="M157.68 34.08V32.15H156.99V31.76H158.84V32.15H158.15V34.08H157.68Z" fill="#002170"/>
<path d="M159.29 34.08V31.75H159.99L160.41 33.34L160.83 31.75H161.54V34.08H161.1V32.25L160.64 34.08H160.19L159.73 32.25V34.08H159.29Z" fill="#002170"/>
</g>
<defs>
<clipPath id="clip0_4_1791">
<rect width="161.08" height="45.56" fill="white" transform="translate(0.459961 0.219971)"/>
</clipPath>
</defs>
</svg>
