<svg width="49" height="50" viewBox="0 0 49 50" fill="none" xmlns="http://www.w3.org/2000/svg">
<g clip-path="url(#clip0_4_1502)">
<path d="M24.5037 49.1611C17.9605 49.1611 11.8087 46.6133 7.1783 41.9828C2.54785 37.3598 0 31.208 0 24.6648C0 18.1216 2.54785 11.9625 7.1783 7.33943C11.8014 2.70899 17.9531 0.161133 24.5037 0.161133C31.0543 0.161133 37.1986 2.70899 41.8291 7.33943C46.4595 11.9699 49.0074 18.1216 49.0074 24.6648C49.0074 31.208 46.4595 37.3598 41.8291 41.9902C37.1986 46.6207 31.0469 49.1685 24.5037 49.1685V49.1611ZM24.5037 2.81976C12.4586 2.81976 2.65863 12.6198 2.65863 24.6648C2.65863 36.7099 12.4586 46.5099 24.5037 46.5099C36.5488 46.5099 46.3488 36.7099 46.3488 24.6648C46.3488 12.6198 36.5414 2.81976 24.5037 2.81976Z" fill="black"/>
<path d="M19.1493 35.9641C17.6206 35.9641 16.3799 34.7234 16.3799 33.1947V16.1351C16.3799 14.6064 17.6206 13.3657 19.1493 13.3657C20.678 13.3657 21.9187 14.6064 21.9187 16.1351V33.1947C21.9187 34.7234 20.678 35.9641 19.1493 35.9641Z" fill="black"/>
<path d="M29.8573 35.9641C28.3286 35.9641 27.0879 34.7234 27.0879 33.1947V16.1351C27.0879 14.6064 28.3286 13.3657 29.8573 13.3657C31.386 13.3657 32.6267 14.6064 32.6267 16.1351V33.1947C32.6267 34.7234 31.386 35.9641 29.8573 35.9641Z" fill="black"/>
</g>
<defs>
<clipPath id="clip0_4_1502">
<rect width="49" height="49" fill="white" transform="translate(0 0.161133)"/>
</clipPath>
</defs>
</svg>
