<svg width="32" height="33" viewBox="0 0 32 33" fill="none" xmlns="http://www.w3.org/2000/svg">
<path d="M17.3562 30.7526C20.9285 26.8005 27.4245 19.0286 27.4245 13.1869C27.4245 10.1315 26.2108 7.20123 24.0503 5.04074C21.8899 2.88026 18.9596 1.6665 15.9042 1.6665C12.8488 1.6665 9.91853 2.88026 7.75804 5.04074C5.59756 7.20123 4.3838 10.1315 4.3838 13.1869C4.37212 19.0528 10.8684 26.8091 14.4488 30.7556C15.2295 31.616 16.5772 31.6145 17.3562 30.7526Z" stroke="black" stroke-width="2" stroke-linecap="round" stroke-linejoin="round"/>
<path d="M15.9038 18.7983C18.8979 18.7983 21.3251 16.371 21.3251 13.3769C21.3251 10.3828 18.8979 7.95557 15.9038 7.95557C12.9096 7.95557 10.4824 10.3828 10.4824 13.3769C10.4824 16.371 12.9096 18.7983 15.9038 18.7983Z" stroke="black" stroke-width="2" stroke-linecap="round" stroke-linejoin="round"/>
</svg>
