<svg width="49" height="49" viewBox="0 0 49 49" fill="none" xmlns="http://www.w3.org/2000/svg">
<g clip-path="url(#clip0_4_1507)">
<path d="M24.5037 49C17.9605 49 11.8087 46.4521 7.1783 41.8217C2.54785 37.1986 0 31.0469 0 24.5037C0 17.9605 2.54785 11.8014 7.1783 7.1783C11.8014 2.54785 17.9531 0 24.5037 0C31.0543 0 37.1986 2.54785 41.8291 7.1783C46.4595 11.8087 49.0074 17.9605 49.0074 24.5037C49.0074 31.0469 46.4595 37.1986 41.8291 41.8291C37.1986 46.4595 31.0469 49.0074 24.5037 49.0074V49ZM24.5037 2.65863C12.4586 2.65863 2.65863 12.4586 2.65863 24.5037C2.65863 36.5488 12.4586 46.3488 24.5037 46.3488C36.5488 46.3488 46.3488 36.5488 46.3488 24.5037C46.3488 12.4586 36.5414 2.65863 24.5037 2.65863Z" fill="black"/>
<path d="M17.4951 15.3538V34.2744C17.4951 35.4855 18.8023 36.2388 19.851 35.6332L36.2311 26.1729C37.2797 25.5673 37.2797 24.0608 36.2311 23.4552L19.851 13.9949C18.8023 13.3894 17.4951 14.1426 17.4951 15.3538V34.2744C17.4951 35.4855 18.8023 36.2388 19.851 35.6332L36.2311 26.1729C37.2797 25.5673 37.2797 24.0608 36.2311 23.4552L19.851 13.9949C18.8023 13.3894 17.4951 14.1426 17.4951 15.3538Z" fill="black"/>
</g>
<defs>
<clipPath id="clip0_4_1507">
<rect width="49" height="49" fill="white"/>
</clipPath>
</defs>
</svg>
