<svg width="20" height="18" viewBox="0 0 20 18" fill="none" xmlns="http://www.w3.org/2000/svg">
<path d="M8.644 0.583527C8.97157 -0.19451 10.0872 -0.194509 10.4148 0.583529L12.3481 5.17564C12.4863 5.50364 12.7985 5.72775 13.1569 5.75614L18.1751 6.15359C19.0253 6.22093 19.3701 7.26915 18.7223 7.81735L14.899 11.0528C14.6259 11.284 14.5066 11.6466 14.59 11.9921L15.7581 16.8299C15.956 17.6495 15.0535 18.2974 14.3255 17.8582L10.0292 15.2657C9.72237 15.0805 9.33643 15.0805 9.02956 15.2657L4.73324 17.8582C4.00531 18.2974 3.10273 17.6495 3.30063 16.8299L4.46874 11.9921C4.55217 11.6466 4.43291 11.284 4.15983 11.0528L0.336447 7.81735C-0.311342 7.26915 0.0334176 6.22093 0.883653 6.15359L5.9019 5.75614C6.26034 5.72775 6.57258 5.50364 6.71067 5.17564L8.644 0.583527Z" fill="#333333"/>
</svg>
