<?xml version="1.0" encoding="utf-8"?>
<!-- Generator: Adobe Illustrator 28.2.0, SVG Export Plug-In . SVG Version: 6.00 Build 0)  -->
<svg version="1.1" id="Layer_1" xmlns="http://www.w3.org/2000/svg" xmlns:xlink="http://www.w3.org/1999/xlink" x="0px" y="0px"
	 viewBox="0 0 22 28.8" style="enable-background:new 0 0 22 28.8;" xml:space="preserve">
<path d="M11,14.6l-1.9-1.9C8.3,12,6.1,9.5,4.7,7C3.9,5.5,3.4,4.2,3.5,3.2c0-0.6,0.2-1.1,0.6-1.5c0.4-0.5,0.9-0.8,1.7-1
	C9-0.3,10.4,0,11,0.4c0.3,0.2,0.4,0.5,0.5,0.8l0,0.3l0,0.1l0,9.2c0,0.7,0,1.5-0.2,2.2L11,14.6z M9.3,1.8c-0.5,0-1.5,0.1-3,0.6
	C5.8,2.5,5.5,2.7,5.4,2.8C5.4,2.9,5.3,3,5.3,3.3c0,0.4,0.1,1.3,1,2.9c1,1.9,2.6,3.6,3.4,4.6V1.8C9.6,1.8,9.5,1.8,9.3,1.8z"/>
<path d="M13.1,17l0.5-2c0,0,0.7-2.7,1.8-4.6c0.6-1,1.2-1.6,1.8-1.8c0.4-0.1,0.7-0.1,1,0c0.4,0.2,0.8,0.5,1.1,1
	c0.7,0.9,1.2,1.8,1.5,2.5c0.2,0.5,0.3,0.9,0.3,1.3l0,0.6l-5.7,2.5c-0.3,0.1-0.6,0.3-0.9,0.3L13.1,17z M17.7,10.3
	c-0.2,0.1-0.4,0.4-0.7,0.9c-0.5,0.9-1,2.1-1.3,3l3.5-1.5c0,0,0,0,0,0c-0.2-0.4-0.5-1.1-1.3-2.1C17.9,10.5,17.8,10.4,17.7,10.3z"/>
<path d="M17.5,26.1L13.8,21c-0.2-0.2-0.4-0.5-0.5-0.8l-0.7-1.3l2,0.1c2,0.1,3.7,0.4,4.9,0.8c1.1,0.4,1.9,0.8,2.2,1.3
	c0.2,0.3,0.3,0.7,0.2,1c-0.1,0.4-0.3,0.8-0.7,1.3c-0.8,0.9-1.5,1.6-2.1,2c-0.4,0.3-0.8,0.5-1.2,0.6L17.5,26.1z M15.9,20.9l2.2,3.1
	c0.3-0.2,0.9-0.7,1.7-1.7c0.1-0.1,0.2-0.2,0.2-0.3c-0.2-0.1-0.5-0.3-1.1-0.5C18.4,21.3,17.4,21,15.9,20.9z"/>
<path d="M3.9,19c-0.3,0-0.7,0-1,0c-1.2-0.1-2-0.4-2.4-0.8c-0.3-0.3-0.4-0.6-0.4-1c0-0.4,0.1-0.9,0.4-1.4c0.6-1,1.1-1.9,1.6-2.4
	c0.4-0.4,0.7-0.7,1-0.8l0.5-0.2l4.7,4.1c0.2,0.2,0.5,0.4,0.7,0.7l0.9,1.1l-2,0.4C7.1,18.7,5.5,19,3.9,19z M1.8,16.9
	C2,17,2.4,17.1,3,17.2c1.1,0.1,2.3,0,3.2-0.1l-2.9-2.5c0,0,0,0,0,0c-0.3,0.3-0.7,0.9-1.3,2.1C1.9,16.7,1.9,16.9,1.8,16.9z"/>
<path d="M10,28.8c-0.4,0-0.9-0.1-1.4-0.4c-1-0.5-1.9-1.1-2.4-1.6c-0.4-0.4-0.7-0.7-0.8-1l-0.2-0.5l4.1-4.7c0.2-0.2,0.4-0.5,0.6-0.7
	l1.2-1l0.4,2.1c0.1,0.3,0.5,2.9,0.4,5c-0.1,1.2-0.4,2-0.8,2.4C10.8,28.6,10.4,28.8,10,28.8C10,28.8,10,28.8,10,28.8z M7.4,25.4
	C7.4,25.5,7.4,25.5,7.4,25.4c0.3,0.3,0.9,0.7,2.1,1.3c0.2,0.1,0.3,0.1,0.4,0.2c0.1-0.2,0.2-0.6,0.2-1.1c0.1-1.1,0-2.3-0.1-3.3
	L7.4,25.4z"/>
</svg>
