<?xml version="1.0" encoding="utf-8"?>
<!-- Generator: Adobe Illustrator 28.2.0, SVG Export Plug-In . SVG Version: 6.00 Build 0)  -->
<svg version="1.1" id="Layer_1" xmlns="http://www.w3.org/2000/svg" xmlns:xlink="http://www.w3.org/1999/xlink" x="0px" y="0px"
	 viewBox="0 0 32 22.7" style="enable-background:new 0 0 32 22.7;" xml:space="preserve">
<path d="M17.6,22.7h-3.2c-2.5,0-6.1,0-8.7-0.3c-2.1-0.2-2.9-0.5-3.6-1.2c-1.4-1.3-2-4-2-8.8v-2c0.1-5,0.7-7.7,2-8.9
	c0.8-0.7,1.5-1,3.6-1.2C8.3,0,11.9,0,14.4,0h3.2c2.7,0,6.2,0,8.7,0.3c2.2,0.2,2.9,0.6,3.6,1.2l0,0c1.4,1.2,2,3.9,2,8.7v2.2
	c-0.1,4.9-0.7,7.5-2,8.8c-0.8,0.7-1.5,1-3.6,1.2C24.3,22.6,21.5,22.7,17.6,22.7z M14.4,1.8c-2.4,0-6,0-8.6,0.3
	C3.9,2.2,3.6,2.5,3.2,2.8c-1.4,1.3-1.4,6-1.4,7.6v1.9c0,4.1,0.5,6.7,1.5,7.5c0.3,0.3,0.6,0.6,2.6,0.8c2.5,0.2,6.1,0.3,8.6,0.3h3.2
	c3.8,0,6.6-0.1,8.6-0.3c1.9-0.2,2.2-0.4,2.6-0.8c0.9-0.8,1.4-3.3,1.4-7.4v-2.2c-0.1-4.1-0.5-6.6-1.5-7.4l0,0
	c-0.3-0.3-0.6-0.6-2.6-0.8c-2.5-0.2-5.9-0.3-8.6-0.3H14.4z M13.6,16.5c-0.2,0-0.5-0.1-0.7-0.2c-0.4-0.2-0.7-0.7-0.7-1.2V7.9
	c0-0.5,0.3-1,0.7-1.2c0.4-0.2,1-0.3,1.4,0l6.1,3.5c0.4,0.2,0.7,0.7,0.7,1.2c0,0.5-0.2,1-0.7,1.2l-6.1,3.7
	C14.1,16.4,13.8,16.5,13.6,16.5z M14,8.5v5.8l5-3L14,8.5z"/>
</svg>
